<?xml version="1.0" encoding="utf-8"?>
<!-- Generator: Adobe Illustrator 16.0.0, SVG Export Plug-In . SVG Version: 6.00 Build 0)  -->
<!DOCTYPE svg PUBLIC "-//W3C//DTD SVG 1.1//EN" "http://www.w3.org/Graphics/SVG/1.1/DTD/svg11.dtd">
<svg version="1.1" xmlns="http://www.w3.org/2000/svg" xmlns:xlink="http://www.w3.org/1999/xlink" x="0px" y="0px"
	 width="2288.895px" height="2679.5px" viewBox="0 0 2288.895 2679.5" enable-background="new 0 0 2288.895 2679.5"
	 xml:space="preserve">
<g id="Capa_1">
</g>
<g id="Capa_2">
	<g>
		<path d="M311.145,313.873c11.661,1.986,33.527,7.097,44.238,0.007c11.966-7.921,9.504-28.958,4.43-40.041
			c-9.255-20.212-21.321-30.039-42.244-37.964c-15.105-5.722-34.537-14.136-46.164-25.554c-12.14-11.921-15.589-28.56-24.292-42.683
			c-7.96-12.917-18.466-21.464-31.448-28.983c-16.563-9.592-45.925-22.668-64.833-14.798c-19.606,8.161-34.708,32.642-39.037,52.297
			c-2.392,10.863-1.095,25.61,5.35,34.385c6.2,8.441,16.187,13.875,23.166,22.284c16.17,19.484,33.471,38.305,50.187,57.867
			c7.356,8.61,11.533,19.729,19.281,27.851c7.463,7.823,18.824,17.003,28.503,22.669c9.124,5.342,19.57,10.357,30.566,7.463
			c14.218-3.743,6.366-18.318,9.45-28.682C282.254,306.698,301.513,312.232,311.145,313.873z"/>
		<path d="M523.646,412.008c11.7,0.222,28.807,6.488,37.956-4.375c7.037-8.355,4.115-19.684-4.404-26.224
			c-19.101-14.664-24.118-16.372-17.246-40.055c4.95-17.063,6.633-32.716-10.807-42.831c-9.395-5.449-20.429-9.14-31.498-8.518
			c-18.044,1.014-32.123,15.644-47.466,23.187c-7.737,3.804-15.052,4.057-23.146,2.13c-16.945-4.033-39.951-12.233-54.958,1.516
			c-11.987,10.982-11.034,26.285-13.339,40.892c-1.523,9.661-8.648,16.438-12.316,25.136c-2.905,6.887,0.739,14.675-1.497,21.721
			c-2.541,8.006-7.572,10.051-14.63,14.102c-9.461,5.43-20.549,10.952-25.147,20.684c-4.646,9.832-1.887,21.717,6.351,28.796
			c17.621,15.143,45.482,7.978,63.631,21.654c9.563,7.207,11.03,12.833,24.518,12.849c14.135,0.017,24.412-9.566,35.802-16.854
			c12.849-8.221,25.82-10.039,39.431-16.495c12.428-5.894,20.415-19.293,26.95-31.333
			C506.999,428.468,510.381,411.756,523.646,412.008z"/>
		<path d="M1113.836,76.074c12.53,3.85,18.212,15.006,28.839,21.483c4.634,2.824,9.552,5.14,14.387,7.588
			c2.526,1.279,12.781,4.922,13.665,7.61c2.838,8.632-5.811,11.913-7.389,19.53c-1.934,9.333,1.244,16.521-5.026,24.287
			c-5.593,6.926-11.047,13.979-13.987,22.088c-3.303,9.11-2.554,19.429-5.496,28.538c-1.892,5.853-5.471,14.668-11.116,17.96
			c-14.21,8.285-36.682,6.162-51.013-0.611c-7.021-3.318-12.48-7.425-18.621-12.004c-5.718-4.264-12.435-7.381-18.254-11.773
			c-14.776-11.155-24.626-29.508-27.888-47.984c-1.938-10.976-5.137-21.308-5.125-32.613c0.01-9.222,3.941-15.981,8.598-23.402
			c8.799-14.021,31.035-25.652,48.391-19.985c7.015,2.291,12.524,8.382,20.086,6.762
			C1094.195,81.337,1102.21,72.502,1113.836,76.074z"/>
		<path d="M1139.739,405.221c26.056-2.229,56.497-10.732,66.346-32.662c10.478-23.332,4.251-37.272-1.666-60.765
			c-5.327-21.147-30.059-47.163-52.095-51.134c-8.853-1.594-20.821-2.048-28.76,2.833c-9,5.535-14.542,15.808-20.852,23.92
			c-7.799,10.027-14.808,15.699-25.945,21.832c-20.161,11.103-34.762-13.558-52.979-16.949c-15.762-2.934-38.412,5.712-48,18.25
			c-8.755,11.449-9.7,26.482-8.961,40.323c0.686,12.848-2.106,27.315-0.199,39.72c3.711,24.133,33.509,58.495,60.155,46.055
			c15.701-7.33,25.389-25.08,41.534-31.087c15.442-5.746,32.824-0.682,48.642,0.116
			C1123.567,406.005,1131.43,405.932,1139.739,405.221z"/>
		<path d="M543.87,483.672c-20.839-0.007-41.627,17.581-55.846,32.145c-16.692,17.097-31.957,28.568-56.207,25.398
			c-19.758-2.583-32.531-1.87-37.931,20.612c-4.71,19.611,6.5,42.602,21.041,55.402c15.365,13.526,34.894,23.004,53.798,30.514
			c15.955,6.338,37.448,8.445,54.433,3.123c22.617-7.087,36.442-23.309,49.66-42.023c18.21-6.223,32.874-24.134,29.206-44.113
			c-2.181-11.876-9.125-14.952-16.509-22.547c-7.448-7.66-9.787-18.501-12.146-28.679
			C569.841,498.288,561.195,483.677,543.87,483.672z"/>
		<path d="M267.325,681.442c17.145-8.323,39.515-15.091,49.75-32.322c8.414-14.166,24.346-30.163,27.994-46.739
			c3.993-18.146-1.66-39.441-17.168-50.626c-18.957-13.673-43.799-11.28-62.451,1.645c-19.766,13.696-36.658,28.33-57.894,40.098
			c-17.407,9.646-50.285,12.164-60.08,31.123c-9.779,18.927,7.167,16.914,17.194,25.025c4.291,3.471,5.198,9.709,6.754,15.272
			c1.782,6.369,3.048,8.869,6.397,14.58c16.729,4.121,34.045-13.313,49.803-6.1c6.975,3.193,9.383,9.497,17.026,11.271
			C252.272,686.438,261.145,684.442,267.325,681.442z"/>
		<path d="M1143.009,651.869c-4.083,4.477-1.064,11.019-1.988,16.246c-1.106,6.259-4.334,10.975-8.365,15.787
			c-5.584,6.666-11.343,10.567-19.344,13.689c-11.479,4.48-23.287,7.534-34.402,13.097c-11.271,5.64-22.1,15.791-35.094,17.003
			c-18.936,1.766-20.312-11.39-30.204-22.457c-8.965-10.029-22.651-15.628-29.574-27.564c-13.357-23.029-1.792-47.125-6.202-71
			c-3.282-17.768-10.78-34.792,0.464-51.374c8.598-12.68,23.287-16.19,37.518-19.629c23.105-5.584,37.065-16.933,53.563-32.959
			c16.033-15.576,38.163-32.479,61.061-19.973c10.959,5.991,12.909,23.617,13.371,34.937c0.331,8.119-1.226,15.243,3,22.002
			c8.953,14.319,32.329,9.089,38.774,25.223c8.188,20.495-8.118,32.577-22.989,40.551c-6.203,3.326-15.431,10.65-13.056,19.497
			c1.681,6.259,11.432,10.745,8.319,18.774C1155.387,650.099,1146.517,648.023,1143.009,651.869z"/>
		<path d="M471.766,764.234c-3.561-16.95-13.566-34.44-22.703-48.775c-9.188-14.415-14.152-31.211-29.221-41.013
			c-6.507-4.231-13.387-8.254-20.47-11.5c-10.981-5.032-34.031-14.971-44.973-7.522c-12.341,8.401-17.796,27.652-29.952,37.973
			c-11.098,9.423-27.568,18.471-29.798,33.282c-1.697,11.281,6.646,22.979,3.715,33.684c-3.423,12.501-19.211,18.858-16.809,34.723
			c3.442,22.727,35.138,29.776,54.502,25.082c21.839-5.296,39.939-15.851,63.035-10.682c17.291,3.871,30.077,14.692,47.816,5.676
			C471.375,802.728,475.885,783.843,471.766,764.234z"/>
		<path d="M616.622,775.542c-7.827-3.961-14.748-8.262-18.931-13.771c-21.149-27.849-9.999-72.109-59.479-50.359
			c-15.581,6.849-19.226,18.496-19.993,34.583c-1.229,25.779-1.918,37.966-14.826,61.484
			c-12.799,23.324-19.094,121.606,26.603,113.232c24.983-4.578,26.356-29.176,41.632-45.574c0.007-0.007,0.014-0.014,0.021-0.022
			c21.211-22.708,72.466-14.399,86.771-41.387C677.463,797.799,642.204,788.489,616.622,775.542z"/>
		<path d="M1155.205,2051.133c-7.827-3.961-14.748-8.263-18.931-13.771c-21.149-27.85-9.999-72.109-59.479-50.359
			c-15.581,6.849-19.226,18.496-19.993,34.583c-1.229,25.778-1.918,37.966-14.826,61.483
			c-12.799,23.324-19.094,121.606,26.603,113.232c24.983-4.578,26.356-29.176,41.632-45.574c0.007-0.007,0.014-0.014,0.021-0.022
			c21.211-22.708,72.466-14.398,86.771-41.387C1216.046,2073.39,1180.787,2064.079,1155.205,2051.133z"/>
		<path d="M743.827,542.004c4.896,3.953,10.015,7.475,16.504,8.271c19.074,2.339,30.65-10.151,47.919-12.826
			c8.851-1.371,16.776,0.037,18.935-11.642c2.43-13.146-7.856-16.171-14.372-23.309c-7.913-8.667-12.303-14.45-17.939-25.901
			c-4.438-9.017-12.301-14.322-19.651-20.699c-6.081-5.277-9.229-11.032-14.489-16.815c-13.315-14.636-34.241-24.298-51.059-34.215
			c-22.497-13.266-54.986-29.853-84.859-20.028c-0.111,0.555-0.223,1.11-0.334,1.665c-14.068,4.251-4.471,26.681-8.662,37.242
			c-6.014,15.153-9.555,24.822,4.075,36.703c5.786,5.044,9.29,7.658,12.722,15.274c3.247,7.207,0.782,11.522,2.032,19.948
			c2.001,13.492,27.1,28.834,39.833,31.167c0.111,0.555,0.223,1.11,0.339,1.667c17.918,7.875,29.368-1.254,46.846,0.697
			C730.669,530.209,737.034,536.521,743.827,542.004z"/>
		<path d="M630.179,641.45c0.642-0.783,1.313-1.579,2.017-2.387c12.663-14.557,28.248-26.372,40.737-41.035
			c7.513-8.821,12.052-23.253,20.272-30.816c21.792-20.051,41.895,0.204,62.672,10.238c3.687,1.78,9.026,0.97,12.917,2.147
			c30.714,9.293,41.986,58.339,13.821,77.052c-18.46,12.265-34.067,30.076-54.277,39.572c-23.076,10.844-38.972,1.05-62.104,2.193
			c-17.62,0.871-35.031,14.066-47.014-7.148C610.422,675.689,620.1,653.757,630.179,641.45z"/>
		<path d="M91.597,1917.041c0.642-0.783,1.313-1.579,2.017-2.387c12.663-14.557,28.248-26.372,40.737-41.035
			c7.513-8.821,12.052-23.254,20.272-30.816c21.792-20.052,41.895,0.204,62.672,10.237c3.687,1.78,9.026,0.971,12.917,2.147
			c30.713,9.294,41.986,58.339,13.821,77.053c-18.46,12.265-34.067,30.076-54.277,39.572c-23.076,10.844-38.972,1.05-62.104,2.192
			c-17.62,0.871-35.031,14.066-47.014-7.147C71.84,1951.28,81.518,1929.348,91.597,1917.041z"/>
		<path d="M995.086,223.724c-4.1,14.567-21.779,21.197-25.297,35.925c-2.032,8.507,3.95,16.03,3.022,24.023
			c-1.117,9.633-10.752,14.22-18.97,18.722c-18.397,10.079-36.065,22.251-52.859,32.449c-0.252,0.939-0.054,1.728-0.342,2.658
			c-9.563,4.539-18.89,11.264-29.559,6.913c-9.915-4.044-10.842-14.193-18.325-19.762c-8.063-6-23.104-2.477-33.216-2.98
			c-17.385-0.865-38.36-6.553-53.503-14.804c-24.986-13.614-5.587-36.82,11.749-47.167c10.163-6.066,21.38-10.096,27.751-19.761
			c8.428-12.787,2.654-24.438,5.199-38.557c3.124-17.34,19.427-17.372,30.174-26.736c9.305-8.108,5.852-23.456,11.071-33.86
			c5.693-11.348,17.586-20.437,28.733-26.05c18.779-9.457,42.327-7.283,56.987,7.743c8.343,8.551,11.482,19.385,17.57,29.276
			c5.017,8.15,12.233,14.545,19.034,21.146C989.078,187.238,1001.241,201.853,995.086,223.724z"/>
		<path d="M909.228,404.44c3.444,1.623,7.009,3.492,10.75,5.654c30.461,17.601,59.286,77.285,32.75,109.165
			c-20.397,24.504-71.227,28.753-82.762-3.978c-8.3-23.55-19.556-47.9-34.072-68.187c-9.891-13.822-31.338-30.773-23.794-50.417
			c7.321-19.063,25.275-5.771,39.015-4.629C873.689,393.924,889.501,395.146,909.228,404.44z"/>
		<path d="M948.812,637.672c4.668,15.461,23.434,32.591,20.074,49.98c-1.775,9.191-11.101,15.304-15.903,23.072
			c-5.792,9.369-4.93,19.296-8.151,28.952c-1.563,4.684-16.421,21.019-21.793,23.12c-9.716,3.798-20.825-6.211-27.194-12.178
			c-7.686-7.201-12.786-11.996-24.48-14.164c-14.23-2.639-26.313-1.19-35.104-15.004c-12.438-19.544,1.833-36.176,3.575-55.98
			c0.586-6.662,1.259-16.278-0.146-22.794c-1.23-5.708-4.768-9.066-4.878-15.003c-0.277-15.017,12.828-16.998,25.071-17
			c9.97-0.002,16.929,0.132,25.703,4.223c5.687,2.651,11.738,5.976,18.229,6.774c9.876,1.213,17.621-4.054,26.944-0.016
			c7.88,3.413,16.382,11.091,17.052,20.02"/>
		<path d="M66.424,742.401c-7.623,16.823-0.602,31.201,0.223,48.222c0.821,16.94-3.395,40.663,9.197,54.07
			c7.992,8.509,18.592,5.199,29.449,7.224c9.75,1.819,16.528,6.785,25.406,9.616c10.088,3.217,30.813-2.949,38.945-10.861
			c5.82-5.663,6.763-17.843,12.781-25.301c14.211-17.611,39.835-24.89,55.194-41.926c7.875-8.735,14.369-22.622,8.207-34.008
			c-9.491-17.541-42.972-14.253-47.323-33.598c-10.168-8.06-14.866-11.398-27.874-8.694c-10.031,2.085-19.159,7.838-29.57,8.157
			c-16.135,0.494-29.091-13.394-45.336-4.311C83.942,717.578,72.028,730.036,66.424,742.401z"/>
		<path d="M721.259,260.513c9.387-10.938,26.523-19.646,29.694-34.746c0.391-1.858,0.246-4.845,0.028-6.735
			c-1.102-9.594-9.396-20.38-15.271-27.961c-6.42-8.284-17.114-11.959-25.769-17.346c-10.033-6.245-20.754-12.529-31.774-16.971
			c-19.405-7.821-45.564-12.351-65.8-5.204c-22.367,7.9-47.405,21.985-62.161,41.015c-11.785,15.199-16.613,38.519-4.875,55.128
			c5.535,7.832,12.32,11.207,20.343,16.606c7.494,5.043,15.336,13.736,18.698,22.583c3.54,9.313,4.933,19.606,11.391,27.773
			c5.838,7.382,18.737,13.717,27.623,15.429c13.055,2.516,25.515,4.416,37.237,9.851c4.463,2.069,6.868,5.052,10.811,7.822
			c4.34,3.049,9.646,3.825,14.777,4.673c9.125,1.508,20.567-3.863,25.154-12.214c5.646-10.28,0.96-21.763,0.216-32.502
			c-0.684-9.856-1.039-21.127,0.414-30.853C713.079,269.618,716.587,265.957,721.259,260.513z"/>
		<path d="M721.227,1357.173c-9.382,9.283-25.495,18.093-39.396,14.732c-10.79-2.607-13.513-13.006-22.51-17.988
			c-22.554-12.49-41.929,11.647-56.701-17.961c-6.245-12.518-10.471-29.791-15.324-43.541c-4.878-13.816-7.585-29.838,7.2-39.444
			c16.468-10.7,30.864,10.138,48.854,2.279c24.691-10.784,39.387-34.38,69.635-21.338c9.721,4.191,16.311,16.163,25.92,21.368
			c7.682,4.16,18.642,3.652,26.893,7.357c8.164,3.667,19.271,11.521,19.558,20.737c0.509,16.406-19.753,19.153-29.979,26.983
			C739.36,1322.621,735.167,1343.382,721.227,1357.173z"/>
		<path d="M240.021,1371.844c27.199-21.451,44.727-43.307,23.506-77.824c-10.986-17.869-30.764-17.757-42.063-34.568
			c-11.513-17.129-38.762-37.765-55.526-8.695c-6.732,11.673-0.204,31.513-1.805,44.653c-4.047,33.217-63.615,82.553-8.922,105
			c23.308,9.566,33.438-2.453,53.955-12.41C219.464,1383.001,230.555,1379.309,240.021,1371.844z"/>
		<path d="M717.61,831.555c2.212,4.594,3.989,9.504,4.824,15.097c5.704,38.216-23.027,78.739,13.422,109.46
			c7.375,6.217,20.985,8.904,28.614,17.043c10.094,10.767,10.103,30.683,23.99,37.687c18.953,9.555,44.476-11.803,54.97-28.731
			c20.817-33.583,22.884-128.525,8.847-162.473c-8.204-19.834-26.687-28.149-42.98-39.99
			c-17.768-12.911-13.813-39.836-29.146-55.383c-14.45-14.65-37.364-4.346-51.899,6.566c-11.24,8.438-5.098,18.674-11.854,28.297
			c-15.227,21.682-24.188,11.547-14.726,41.67C705.282,812.29,712.575,821.104,717.61,831.555z"/>
		<path d="M1055.077,870.992c29.889-19.877,62.74-43.642,34.889-78.087c-10.78-13.333-33.292-10.724-48.055-8.529
			c-12.776,1.9-21.792,6.623-34.197-1.133c-13.427-8.393-12.769-21.272-30.327-23.951c-29.082-4.436-30.399,28.533-46.394,44.963
			c-31.658,32.521-7.501,88.411,14.967,121.486c11.799,17.364,27.421,26.225,46.423,13.166
			c15.96-10.968,19.036-31.141,31.573-44.701C1030.792,886.813,1042.679,879.237,1055.077,870.992z"/>
		<path d="M1185.284,1012.905c3.141-5.76,5.046-12.33,6.158-19.727c4.49-29.884-10.23-67.573-28.488-90.845
			c-22.909-29.196-48.538-47.398-60.412-0.381c-5.655,22.393-2.102,18.05-24.052,26.355c-24.854,9.412-56.747,6.357-78.438,23.502
			c-38.031,30.061-0.087,57.851,28.813,72.246c11.001,5.479,23.046,9.449,31.934,18.334c11.774,11.77,11.618,28.051,20.438,40.862
			c26.232,38.1,46.587-16.28,57.563-36.557c7.592-14.022,21.031-10.971,32.381-18.558
			C1177.509,1023.906,1182.051,1018.834,1185.284,1012.905z"/>
		<path d="M1004.083,1175.628c4.883-17.437,0.115-40.8-0.386-54.992c-0.636-18.026,5.011-37.256-0.345-54.073
			c-5.487-17.232-21.012-28.392-33.586-40.448c-20.647-19.795-20.498-51.012-36.666-71.979
			c-33.103-42.929-48.344,46.216-54.241,64.542c-5.305,16.482-16.405,36.528-9.848,54.837c9.068,25.317,27.877,36.494,29.801,65.267
			c1.749,26.151-6.024,58.058,22.039,73.541c23.247,12.826,21.33-6.719,37.817-16.143c9.499-5.43,18.635,3.438,28.308-0.398
			C996.5,1192.006,1001.569,1184.603,1004.083,1175.628z"/>
		<path d="M1173.286,1329.584c1.313-1.104,2.558-2.136,3.723-3.072c15.243-12.263,20.027-24.543,17.797-44.238
			c-3.506-30.965-47.166-39.728-45.816-69.18c0.526-11.465,16.033-19.732,8.241-32.632c-5.196-8.603-19.315-7.126-27.406-11.16
			c-13.721-6.84-14.889-17.793-25.355-27.091c-35.096-31.176-52.775,15.429-60.094,41.604
			c-8.983,32.126-31.688,39.435-59.221,55.199c-11.454,26.774-7.447,30.815,10.253,55.149c9.724,13.366,11.515,30.815,29.8,38.053
			c21.212,8.393,46.41,1.756,66.611,8.974c14.583,5.211,20.001,26.095,37.461,19.966
			C1143.072,1356.314,1161.101,1339.831,1173.286,1329.584z"/>
		<path d="M782.658,1223.662c22.374,12.311,59.31,24.671,80.332,7.844c31.358-25.102-0.82-57.005-10.116-82.901
			c-10.111-28.165,0.243-58.138-28.551-77.149c-26.38-17.417-46.904-17.447-73.231-0.728c-31.095,19.747-25.015,43.19-39.451,71.491
			c-9.845,19.299-42.122,42.086-8.448,62.988c10.94,6.791,25.783,2.708,37.762,2.723c18.411,0.023,22.042,3.771,36.035,12.428
			C778.746,1221.445,780.643,1222.553,782.658,1223.662z"/>
		<path d="M405.009,1332.165c-0.758-0.438-1.562-0.841-2.421-1.2c-27.192-11.361-60.104,31.46-81.101,1.082
			c-20.002-28.939-6.11-70.116,18.152-90.987c11.472-9.867,24.728-18.035,40.182-19.15c27.804-2.007,30.242,33.303,46.169,48.622
			c16.133,15.517,48.276,15,50.147,41.645c1.007,14.354-11.252,31.256-23.778,37.374
			C429.407,1360.761,423.087,1342.6,405.009,1332.165z"/>
		<path d="M219.607,1215.533c8.673,11.58,18.668,24.089,34.049,23.132c24.063-1.5,27.763-55.858,30.663-73.894
			c5.476-34.047-20.683-58.148-54.692-58.1c-15.475,0.022-34.962,3.195-50.026,0c-19.153-4.062-19.771-21.773-38.256-28.491
			c-27.451-9.977-32.533,27.368-51.222,40.891c-42.441,30.71,45.612,62.863,71.524,61.451c24.817-1.352,35.676,8.166,49.993,24.751
			C214.249,1208.296,216.862,1211.868,219.607,1215.533z"/>
		<path d="M390.149,945.275c3.042,25.746-4.271,52.515,7.11,78.891c8.224,19.057,23.18,45.858,43.716,53.873
			c28.784,11.233,38.955-17.691,58.268-32.595c19.36-14.941,38.73-19.35,44.006-46.971c7.107-37.214-21.93-46.99-47.716-63.053
			c-38.06-23.709-55.011-101.532-109.79-77.189c-29.52,13.118-28.491,26.851-9.043,52.499
			C385.201,921.94,388.757,933.501,390.149,945.275z"/>
		<path d="M684.561,962.075c-2.316-17.877-2.553-36.605-3.565-54.105c-19.123-11.626-25.921-23.012-50.786-7.212
			c-19.299,12.263-30.056,38.547-33.827,60.106c-7.547,43.138,17.233,68.197,31.341,105.868
			c8.082,21.578,11.453,61.937,42.019,38.963c9.882-7.434,42.544-41.622,45.431-53.114c4.891-19.469-14.719-38.349-21.766-55.071
			C688.802,986.581,686.176,974.535,684.561,962.075z"/>
		<path d="M179.027,2107.146c2.212,4.594,3.989,9.504,4.824,15.097c5.704,38.217-23.027,78.739,13.422,109.461
			c7.375,6.217,20.985,8.904,28.614,17.043c10.094,10.767,10.103,30.683,23.99,37.687c18.953,9.555,44.475-11.803,54.969-28.731
			c20.817-33.582,22.884-128.524,8.847-162.473c-8.204-19.834-26.687-28.149-42.98-39.99c-17.767-12.91-13.813-39.836-29.145-55.383
			c-14.45-14.649-37.364-4.346-51.899,6.566c-11.24,8.438-5.098,18.674-11.854,28.297c-15.227,21.682-24.188,11.547-14.726,41.67
			C166.699,2087.88,173.992,2096.695,179.027,2107.146z"/>
		<path d="M145.979,2237.665c-2.316-17.877-2.553-36.605-3.565-54.105c-19.123-11.626-25.921-23.012-50.786-7.212
			c-19.299,12.263-30.056,38.547-33.827,60.106c-7.547,43.138,17.233,68.197,31.341,105.868
			c8.082,21.578,11.453,61.937,42.019,38.963c9.882-7.434,42.544-41.621,45.431-53.113c4.891-19.47-14.719-38.349-21.766-55.071
			C150.22,2262.172,147.594,2250.125,145.979,2237.665z"/>
		<path d="M617.165,1154.108c-0.579-1.275-1.179-2.533-1.798-3.772c-6.031-12.08-16.686-21.371-22.586-33.123
			c-6.282-12.514-4.397-27.539-16.08-37.323c-12.018-10.065-36.905-8.635-49.977-2.854c-1.279,0.543-2.547,1.136-3.799,1.79
			c-0.457,0.239-0.902,0.48-1.352,0.722c-15.459,7.941-32.588,10.96-47.777,19.64c-10.368,5.925-12.463,6.854-25.782,6.656
			c-9.87-0.146-20.214-1.029-29.516,2.856c-13.092,5.467-20.794,18.483-32.135,26.372c-41.696,29.007,6.949,45.605,33.872,55.858
			c14.093,5.368,23.849,8.226,32.956,20.368c11.605,15.473,14.23,38.019,32.307,48.978c22.651,13.73,40.711-1.45,54.628-18.591
			c13.663-16.827,17.52-18.359,39.86-24.292C615.161,1208.051,634.444,1192.15,617.165,1154.108z"/>
		<path d="M943.592,2607.756c-0.758-0.438-1.562-0.841-2.421-1.2c-27.192-11.361-60.104,31.46-81.101,1.082
			c-20.002-28.939-6.11-70.116,18.152-90.987c11.472-9.867,24.728-18.035,40.182-19.15c27.804-2.008,30.242,33.303,46.169,48.622
			c16.133,15.517,48.276,15,50.147,41.645c1.007,14.354-11.252,31.256-23.778,37.374
			C967.99,2636.352,961.67,2618.19,943.592,2607.756z"/>
		<path d="M1155.748,2429.698c-0.579-1.274-1.179-2.533-1.798-3.771c-6.031-12.08-16.686-21.371-22.586-33.123
			c-6.282-12.514-4.397-27.539-16.08-37.323c-12.018-10.065-36.905-8.635-49.977-2.854c-1.279,0.543-2.547,1.136-3.799,1.789
			c-0.457,0.239-0.902,0.48-1.352,0.723c-15.459,7.941-32.588,10.96-47.777,19.64c-10.368,5.925-12.463,6.854-25.782,6.656
			c-9.87-0.146-20.214-1.029-29.516,2.855c-13.092,5.468-20.794,18.483-32.135,26.372c-41.696,29.008,6.949,45.605,33.872,55.858
			c14.093,5.367,23.849,8.226,32.956,20.368c11.605,15.473,14.23,38.019,32.307,48.978c22.651,13.73,40.711-1.45,54.628-18.591
			c13.663-16.827,17.52-18.359,39.86-24.292C1153.744,2483.642,1173.027,2467.741,1155.748,2429.698z"/>
		<path d="M347.586,954.145c-3.036-18.411-9.474-38.344-21.376-50.692c-16.117-16.72-41.861-20.562-56.165-38.885
			c-13.229-16.948-10.535-36.189-40.536-33.897c-37.127,2.836-21.154,45.125-43.834,61.944
			c-12.859,9.537-29.872,6.257-32.162,27.889c-1.792,16.933,15.471,29.235,14.183,46.125c-1.372,17.983-19.765,40.111,6.311,48.429
			c11.116,3.545,17.239-2.889,28.368,3.725c12.966,7.705,16.156,23.849,26.338,34.056c12.666,12.698,27.252,19.966,37.933,36.286
			c7.725,11.801,14.455,31.991,29,35.587c37.319,9.226,21.393-37.11,38-50.143c12.576-9.869,19.419-1.798,18.445-20.341
			c-0.531-10.102-7.189-15.735-10.947-24.608c-10.888-25.708,9.932-34.896,8.372-58.675
			C349.173,965.692,348.551,959.996,347.586,954.145z"/>
		<path d="M849.728,1589.463c11.661,1.986,33.527,7.098,44.238,0.007c11.966-7.921,9.504-28.957,4.43-40.041
			c-9.255-20.212-21.321-30.038-42.244-37.964c-15.105-5.722-34.537-14.136-46.164-25.554c-12.14-11.921-15.589-28.56-24.292-42.683
			c-7.961-12.917-18.466-21.464-31.448-28.982c-16.563-9.593-45.925-22.668-64.833-14.799
			c-19.605,8.161-34.708,32.643-39.036,52.297c-2.393,10.863-1.096,25.61,5.35,34.386c6.2,8.441,16.188,13.874,23.166,22.283
			c16.17,19.484,33.471,38.305,50.187,57.867c7.356,8.609,11.533,19.729,19.281,27.851c7.463,7.823,18.824,17.003,28.503,22.669
			c9.124,5.342,19.57,10.357,30.566,7.463c14.218-3.743,6.366-18.318,9.45-28.683
			C820.837,1582.288,840.096,1587.822,849.728,1589.463z"/>
		<path d="M1062.229,1687.599c11.7,0.222,28.807,6.488,37.956-4.375c7.037-8.354,4.115-19.684-4.404-26.224
			c-19.101-14.664-24.118-16.372-17.246-40.055c4.95-17.063,6.633-32.717-10.807-42.831c-9.395-5.449-20.429-9.141-31.498-8.519
			c-18.044,1.015-32.123,15.644-47.466,23.188c-7.737,3.804-15.052,4.057-23.146,2.13c-16.945-4.033-39.951-12.232-54.958,1.516
			c-11.987,10.982-11.034,26.285-13.339,40.893c-1.523,9.661-8.648,16.438-12.316,25.136c-2.905,6.887,0.739,14.675-1.497,21.721
			c-2.541,8.006-7.572,10.051-14.63,14.103c-9.461,5.43-20.549,10.952-25.147,20.684c-4.646,9.831-1.887,21.717,6.351,28.796
			c17.621,15.143,45.482,7.978,63.631,21.653c9.563,7.207,11.03,12.833,24.518,12.85c14.135,0.017,24.412-9.566,35.802-16.854
			c12.849-8.221,25.82-10.039,39.431-16.495c12.428-5.894,20.415-19.293,26.95-31.333
			C1045.582,1704.059,1048.964,1687.347,1062.229,1687.599z"/>
		<path d="M575.253,1351.664c12.531,3.85,18.213,15.006,28.84,21.483c4.633,2.824,9.552,5.14,14.387,7.589
			c2.526,1.279,12.78,4.922,13.664,7.61c2.839,8.632-5.811,11.913-7.389,19.529c-1.934,9.333,1.245,16.521-5.025,24.287
			c-5.593,6.926-11.048,13.979-13.987,22.088c-3.303,9.11-2.554,19.429-5.497,28.537c-1.891,5.853-5.47,14.669-11.115,17.96
			c-14.211,8.285-36.682,6.162-51.014-0.611c-7.02-3.317-12.479-7.425-18.62-12.004c-5.718-4.264-12.435-7.381-18.254-11.773
			c-14.777-11.154-24.626-29.508-27.889-47.984c-1.938-10.976-5.136-21.308-5.124-32.612c0.01-9.222,3.94-15.981,8.598-23.402
			c8.799-14.021,31.035-25.652,48.391-19.985c7.015,2.291,12.524,8.383,20.085,6.762
			C555.612,1356.928,563.627,1348.093,575.253,1351.664z"/>
		<path d="M601.157,1680.812c26.056-2.229,56.497-10.732,66.345-32.662c10.478-23.332,4.252-37.272-1.666-60.765
			c-5.326-21.147-30.058-47.163-52.095-51.134c-8.852-1.594-20.82-2.049-28.759,2.833c-9,5.535-14.542,15.809-20.852,23.92
			c-7.8,10.027-14.809,15.699-25.946,21.832c-20.16,11.104-34.761-13.558-52.979-16.949c-15.761-2.934-38.412,5.713-47.999,18.25
			c-8.756,11.448-9.701,26.482-8.962,40.323c0.687,12.848-2.106,27.315-0.199,39.72c3.711,24.133,33.509,58.494,60.156,46.055
			c15.7-7.33,25.388-25.08,41.534-31.088c15.441-5.745,32.823-0.682,48.642,0.116
			C584.985,1681.596,592.847,1681.522,601.157,1680.812z"/>
		<path d="M798.927,1763.965c-3.167-12.871-7.681-25.814-4.998-39.779c3.776-19.648,13.731-45.823-1.596-63.109
			c-15.882-17.903-35.554-5.783-54.654-1.096c-7.514,1.844-15.981,1.984-22.639,6.588c-7.373,5.098-8.951,14.07-16.01,19.113
			c-7.128,5.088-16.537,4.152-24.749,3.335c-13.38-1.33-29.112-3.807-42.075,0.965c-17.227,6.34-23.062,32.446-11.68,45.84
			c14.882,17.512,48.934,17.083,57.926,39.219c6.105,15.029,0.14,32.118,15.8,43.219c15.237,10.801,40.769,17.496,59,13.253
			c18.484-4.303,45.823-24.112,48.096-44.417C802.223,1779.275,800.814,1771.633,798.927,1763.965z"/>
		<path d="M260.344,488.374c-3.167-12.871-7.68-25.814-4.998-39.779c3.776-19.648,13.731-45.823-1.596-63.109
			c-15.882-17.903-35.554-5.783-54.654-1.096c-7.514,1.844-15.981,1.984-22.639,6.588c-7.373,5.098-8.951,14.07-16.01,19.113
			c-7.128,5.088-16.537,4.152-24.749,3.335c-13.38-1.33-29.112-3.807-42.075,0.965c-17.227,6.34-23.062,32.446-11.68,45.84
			c14.882,17.512,48.934,17.083,57.926,39.219c6.105,15.029,0.14,32.118,15.8,43.219c15.237,10.801,40.769,17.496,59,13.253
			c18.484-4.303,45.823-24.112,48.095-44.417C263.64,503.685,262.231,496.042,260.344,488.374z"/>
		<path d="M1082.453,1759.263c-20.839-0.007-41.627,17.581-55.846,32.145c-16.692,17.098-31.957,28.568-56.207,25.398
			c-19.758-2.583-32.531-1.869-37.931,20.612c-4.71,19.611,6.5,42.602,21.041,55.402c15.365,13.526,34.894,23.004,53.798,30.514
			c15.955,6.338,37.448,8.444,54.433,3.122c22.617-7.087,36.442-23.309,49.66-42.022c18.21-6.223,32.874-24.134,29.206-44.113
			c-2.181-11.877-9.125-14.952-16.509-22.547c-7.448-7.66-9.787-18.501-12.146-28.679
			C1108.424,1773.879,1099.778,1759.268,1082.453,1759.263z"/>
		<path d="M805.908,1957.033c17.145-8.323,39.515-15.091,49.75-32.322c8.414-14.166,24.346-30.163,27.994-46.739
			c3.993-18.146-1.66-39.44-17.168-50.626c-18.957-13.674-43.799-11.28-62.451,1.645c-19.766,13.695-36.658,28.33-57.894,40.098
			c-17.407,9.646-50.285,12.164-60.08,31.123c-9.779,18.927,7.166,16.913,17.193,25.024c4.291,3.471,5.198,9.709,6.755,15.272
			c1.781,6.369,3.048,8.869,6.396,14.58c16.729,4.121,34.045-13.313,49.803-6.1c6.976,3.193,9.383,9.497,17.026,11.271
			C790.855,1962.028,799.728,1960.033,805.908,1957.033z"/>
		<path d="M604.427,1927.46c-4.083,4.477-1.065,11.019-1.989,16.246c-1.105,6.259-4.333,10.975-8.364,15.787
			c-5.584,6.665-11.344,10.566-19.344,13.689c-11.479,4.48-23.287,7.534-34.403,13.097c-11.271,5.64-22.099,15.791-35.094,17.003
			c-18.935,1.766-20.311-11.39-30.203-22.457c-8.965-10.028-22.651-15.628-29.574-27.563c-13.358-23.029-1.793-47.126-6.203-71
			c-3.282-17.768-10.779-34.791,0.464-51.374c8.598-12.68,23.288-16.19,37.519-19.629c23.105-5.584,37.064-16.933,53.563-32.959
			c16.034-15.576,38.163-32.479,61.062-19.973c10.959,5.991,12.908,23.617,13.371,34.937c0.331,8.119-1.227,15.243,3,22.002
			c8.953,14.319,32.329,9.09,38.773,25.223c8.188,20.495-8.118,32.577-22.989,40.552c-6.202,3.326-15.43,10.65-13.055,19.497
			c1.68,6.259,11.431,10.745,8.318,18.773C616.805,1925.689,607.934,1923.614,604.427,1927.46z"/>
		<path d="M1010.349,2039.824c-3.561-16.949-13.566-34.44-22.703-48.774c-9.188-14.415-14.152-31.212-29.221-41.013
			c-6.507-4.231-13.387-8.255-20.47-11.5c-10.981-5.032-34.031-14.972-44.973-7.522c-12.341,8.401-17.796,27.652-29.952,37.974
			c-11.098,9.423-27.568,18.471-29.798,33.281c-1.697,11.281,6.646,22.979,3.715,33.684c-3.423,12.501-19.211,18.858-16.809,34.723
			c3.442,22.727,35.138,29.776,54.502,25.082c21.839-5.296,39.939-15.851,63.035-10.682c17.291,3.871,30.077,14.692,47.816,5.677
			C1009.958,2078.318,1014.468,2059.434,1010.349,2039.824z"/>
		<path d="M205.244,1817.595c4.896,3.952,10.015,7.475,16.504,8.271c19.074,2.34,30.65-10.15,47.918-12.826
			c8.851-1.371,16.776,0.037,18.935-11.642c2.43-13.146-7.856-16.171-14.372-23.309c-7.913-8.667-12.303-14.449-17.939-25.901
			c-4.438-9.017-12.301-14.322-19.651-20.699c-6.081-5.276-9.229-11.031-14.489-16.815c-13.315-14.636-34.241-24.298-51.059-34.215
			c-22.497-13.266-54.986-29.853-84.859-20.028c-0.111,0.556-0.223,1.11-0.334,1.665c-14.068,4.252-4.471,26.681-8.662,37.242
			c-6.014,15.153-9.555,24.822,4.075,36.703c5.786,5.044,9.29,7.658,12.722,15.274c3.247,7.206,0.782,11.521,2.032,19.948
			c2.001,13.492,27.1,28.834,39.833,31.167c0.111,0.556,0.223,1.11,0.339,1.667c17.918,7.875,29.368-1.254,46.846,0.697
			C192.087,1805.8,198.451,1812.111,205.244,1817.595z"/>
		<path d="M456.503,1499.314c-4.099,14.567-21.778,21.197-25.297,35.925c-2.032,8.508,3.95,16.03,3.023,24.023
			c-1.117,9.633-10.752,14.22-18.97,18.722c-18.398,10.079-36.066,22.252-52.859,32.449c-0.252,0.938-0.055,1.728-0.342,2.658
			c-9.564,4.539-18.891,11.264-29.559,6.913c-9.915-4.045-10.843-14.193-18.326-19.762c-8.063-6-23.103-2.478-33.215-2.98
			c-17.385-0.865-38.361-6.554-53.503-14.805c-24.986-13.614-5.587-36.82,11.749-47.167c10.164-6.066,21.379-10.096,27.75-19.762
			c8.428-12.786,2.655-24.438,5.199-38.557c3.125-17.34,19.428-17.372,30.174-26.736c9.305-8.107,5.852-23.456,11.071-33.859
			c5.694-11.349,17.586-20.438,28.733-26.051c18.78-9.456,42.328-7.283,56.988,7.743c8.342,8.551,11.481,19.385,17.569,29.276
			c5.017,8.15,12.234,14.545,19.034,21.146C450.496,1462.828,462.658,1477.443,456.503,1499.314z"/>
		<path d="M370.645,1680.03c3.444,1.623,7.009,3.492,10.75,5.654c30.461,17.601,59.286,77.285,32.75,109.164
			c-20.397,24.505-71.227,28.753-82.762-3.978c-8.3-23.55-19.556-47.899-34.072-68.187c-9.891-13.822-31.338-30.773-23.794-50.418
			c7.321-19.063,25.275-5.771,39.015-4.629C335.106,1669.515,350.918,1670.737,370.645,1680.03z"/>
		<path d="M410.23,1913.263c4.668,15.461,23.433,32.591,20.074,49.979c-1.775,9.191-11.101,15.304-15.903,23.072
			c-5.793,9.369-4.93,19.296-8.151,28.951c-1.563,4.684-16.421,21.02-21.794,23.12c-9.715,3.798-20.825-6.212-27.193-12.179
			c-7.687-7.2-12.787-11.996-24.48-14.163c-14.231-2.639-26.313-1.19-35.104-15.004c-12.438-19.544,1.833-36.176,3.574-55.98
			c0.586-6.662,1.259-16.278-0.146-22.794c-1.23-5.708-4.768-9.066-4.877-15.003c-0.277-15.018,12.827-16.998,25.071-17
			c9.969-0.002,16.929,0.132,25.702,4.223c5.687,2.65,11.738,5.976,18.229,6.773c9.876,1.214,17.622-4.054,26.945-0.016
			c7.879,3.412,16.382,11.091,17.052,20.02"/>
		<path d="M605.007,2017.992c-7.623,16.823-0.603,31.201,0.223,48.222c0.82,16.94-3.396,40.663,9.197,54.07
			c7.992,8.509,18.592,5.198,29.448,7.224c9.75,1.819,16.528,6.785,25.406,9.616c10.088,3.217,30.813-2.949,38.944-10.861
			c5.82-5.663,6.764-17.843,12.781-25.301c14.211-17.611,39.835-24.89,55.194-41.926c7.875-8.735,14.368-22.622,8.207-34.009
			c-9.491-17.54-42.972-14.253-47.323-33.598c-10.168-8.06-14.865-11.397-27.874-8.694c-10.03,2.085-19.159,7.839-29.57,8.157
			c-16.135,0.494-29.091-13.394-45.336-4.311C622.525,1993.168,610.611,2005.626,605.007,2017.992z"/>
		<path d="M947.014,1346.497c16.181,56.565,107.278,28.09,116.373,68.283c4.58,20.236-20.815,43.09-24.987,62.563
			c-4.403,20.556,5.59,44.28-23.86,48.175c-43.604,5.768-75.906-32.167-105.505-56.402c-31.789-26.028-79.016-22.019-108.945-48.814
			c-6.544-5.86-7.809-15.42-7.473-23.824c0.613-15.348,35.323-24.776,41.901-44.224c8.337-24.646,3.539-70.766,37.021-76.172
			c33.843-5.466,49.562,36.09,67.49,54.904c0.008,0.008,0.016,0.016,0.022,0.024c4.33,4.575,6.375,9.911,7.944,15.424
			C947.001,1346.455,947.007,1346.477,947.014,1346.497z"/>
		<path d="M408.431,70.906c16.181,56.565,107.278,28.09,116.373,68.283c4.58,20.236-20.815,43.09-24.987,62.563
			c-4.403,20.556,5.59,44.28-23.86,48.175c-43.604,5.768-75.906-32.167-105.505-56.402c-31.789-26.028-79.016-22.019-108.945-48.814
			c-6.543-5.86-7.808-15.42-7.472-23.824c0.613-15.348,35.323-24.776,41.901-44.224c8.337-24.646,3.539-70.766,37.021-76.172
			c33.843-5.466,49.562,36.09,67.49,54.904c0.008,0.008,0.016,0.016,0.022,0.024c4.33,4.575,6.375,9.911,7.944,15.424
			C408.418,70.864,408.424,70.886,408.431,70.906z"/>
		<path d="M182.677,1536.104c9.387-10.938,26.523-19.646,29.694-34.745c0.391-1.858,0.246-4.846,0.028-6.735
			c-1.102-9.594-9.396-20.38-15.271-27.961c-6.42-8.283-17.114-11.959-25.769-17.346c-10.033-6.244-20.754-12.528-31.774-16.971
			c-19.405-7.821-45.564-12.352-65.8-5.204c-22.367,7.9-47.405,21.985-62.161,41.016c-11.785,15.198-16.613,38.519-4.875,55.128
			c5.535,7.832,12.32,11.207,20.343,16.606c7.494,5.043,15.336,13.735,18.698,22.582c3.54,9.313,4.933,19.606,11.391,27.773
			c5.838,7.382,18.737,13.717,27.623,15.429c13.055,2.517,25.515,4.416,37.237,9.852c4.463,2.069,6.868,5.052,10.811,7.821
			c4.34,3.049,9.646,3.825,14.777,4.673c9.125,1.508,20.567-3.863,25.154-12.214c5.646-10.28,0.96-21.763,0.216-32.502
			c-0.684-9.856-1.039-21.128,0.414-30.853C174.496,1545.208,178.005,1541.547,182.677,1536.104z"/>
		<path d="M182.645,2632.764c-9.382,9.283-25.495,18.093-39.396,14.732c-10.79-2.607-13.512-13.006-22.509-17.988
			c-22.554-12.49-41.929,11.647-56.701-17.961c-6.245-12.518-10.471-29.791-15.325-43.541c-4.878-13.816-7.584-29.838,7.2-39.444
			c16.468-10.7,30.864,10.138,48.855,2.279c24.691-10.784,39.387-34.38,69.634-21.338c9.721,4.191,16.311,16.163,25.92,21.368
			c7.682,4.16,18.641,3.652,26.892,7.357c8.165,3.667,19.271,11.521,19.558,20.737c0.509,16.406-19.753,19.153-29.979,26.983
			C200.778,2598.212,196.584,2618.973,182.645,2632.764z"/>
		<path d="M778.603,2647.435c27.199-21.451,44.728-43.307,23.507-77.824c-10.986-17.869-30.765-17.757-42.063-34.568
			c-11.513-17.129-38.762-37.765-55.526-8.695c-6.732,11.673-0.204,31.513-1.805,44.653c-4.047,33.217-63.615,82.553-8.922,105
			c23.308,9.566,33.438-2.453,53.955-12.41C758.046,2658.592,769.137,2654.899,778.603,2647.435z"/>
		<path d="M516.494,2146.583c29.89-19.878,62.74-43.642,34.89-78.088c-10.78-13.333-33.292-10.724-48.055-8.528
			c-12.777,1.9-21.793,6.622-34.198-1.133c-13.426-8.394-12.769-21.272-30.327-23.951c-29.081-4.436-30.398,28.533-46.393,44.963
			c-31.658,32.521-7.501,88.411,14.967,121.486c11.799,17.364,27.421,26.225,46.423,13.165
			c15.959-10.968,19.035-31.141,31.573-44.701C492.208,2162.403,504.096,2154.827,516.494,2146.583z"/>
		<path d="M646.702,2288.495c3.14-5.76,5.046-12.329,6.157-19.727c4.491-29.884-10.23-67.573-28.487-90.845
			c-22.909-29.196-48.539-47.398-60.412-0.381c-5.655,22.393-2.103,18.05-24.053,26.355c-24.853,9.412-56.747,6.357-78.438,23.502
			c-38.031,30.061-0.088,57.851,28.813,72.246c11.001,5.479,23.046,9.449,31.934,18.334c11.773,11.771,11.617,28.051,20.438,40.862
			c26.232,38.101,46.586-16.28,57.563-36.557c7.592-14.022,21.031-10.971,32.38-18.559
			C638.927,2299.496,643.468,2294.425,646.702,2288.495z"/>
		<path d="M465.5,2451.219c4.884-17.437,0.115-40.8-0.385-54.991c-0.636-18.026,5.011-37.256-0.345-54.073
			c-5.488-17.232-21.012-28.392-33.587-40.448c-20.646-19.795-20.498-51.012-36.665-71.979
			c-33.104-42.929-48.344,46.217-54.242,64.542c-5.305,16.481-16.404,36.528-9.847,54.837c9.067,25.316,27.876,36.494,29.801,65.267
			c1.749,26.15-6.024,58.058,22.039,73.541c23.246,12.825,21.33-6.719,37.816-16.144c9.499-5.43,18.635,3.438,28.309-0.397
			C457.917,2467.597,462.987,2460.193,465.5,2451.219z"/>
		<path d="M634.704,2605.175c1.313-1.104,2.558-2.136,3.722-3.072c15.244-12.263,20.027-24.543,17.798-44.238
			c-3.507-30.965-47.167-39.729-45.816-69.18c0.525-11.466,16.033-19.732,8.241-32.633c-5.197-8.603-19.315-7.126-27.407-11.159
			c-13.721-6.841-14.888-17.793-25.355-27.091c-35.096-31.177-52.775,15.429-60.094,41.604
			c-8.983,32.126-31.688,39.435-59.22,55.199c-11.454,26.774-7.448,30.815,10.253,55.149c9.723,13.366,11.514,30.815,29.8,38.053
			c21.212,8.393,46.409,1.756,66.61,8.974c14.584,5.211,20.002,26.095,37.461,19.966
			C604.489,2631.905,622.518,2615.422,634.704,2605.175z"/>
		<path d="M244.075,2499.253c22.374,12.311,59.309,24.671,80.332,7.844c31.358-25.102-0.82-57.005-10.116-82.9
			c-10.111-28.165,0.243-58.138-28.551-77.149c-26.379-17.417-46.904-17.446-73.231-0.728
			c-31.095,19.747-25.015,43.19-39.451,71.491c-9.845,19.299-42.122,42.086-8.448,62.987c10.94,6.791,25.783,2.708,37.762,2.723
			c18.411,0.023,22.042,3.771,36.035,12.428C240.163,2497.035,242.061,2498.144,244.075,2499.253z"/>
		<path d="M758.19,2491.124c8.673,11.58,18.668,24.089,34.049,23.132c24.063-1.5,27.763-55.858,30.663-73.894
			c5.476-34.048-20.683-58.148-54.692-58.1c-15.476,0.021-34.962,3.194-50.026,0c-19.153-4.062-19.771-21.773-38.256-28.491
			c-27.451-9.978-32.532,27.367-51.222,40.891c-42.441,30.71,45.612,62.862,71.524,61.451c24.816-1.353,35.676,8.165,49.993,24.751
			C752.832,2483.887,755.445,2487.459,758.19,2491.124z"/>
		<path d="M928.732,2220.865c3.042,25.746-4.271,52.516,7.11,78.892c8.224,19.057,23.18,45.858,43.716,53.873
			c28.784,11.233,38.955-17.691,58.268-32.596c19.36-14.94,38.73-19.35,44.006-46.971c7.107-37.215-21.93-46.99-47.716-63.054
			c-38.06-23.709-55.011-101.532-109.79-77.188c-29.52,13.118-28.491,26.851-9.043,52.499
			C923.784,2197.531,927.34,2209.092,928.732,2220.865z"/>
		<path d="M886.169,2229.735c-3.036-18.411-9.474-38.344-21.376-50.691c-16.117-16.72-41.861-20.563-56.165-38.885
			c-13.229-16.948-10.535-36.189-40.536-33.897c-37.127,2.837-21.154,45.126-43.834,61.944
			c-12.859,9.537-29.872,6.257-32.162,27.889c-1.792,16.934,15.471,29.235,14.184,46.125c-1.372,17.983-19.765,40.111,6.311,48.429
			c11.116,3.545,17.239-2.889,28.368,3.725c12.966,7.704,16.156,23.849,26.338,34.056c12.666,12.698,27.252,19.966,37.934,36.286
			c7.725,11.801,14.455,31.991,29,35.587c37.319,9.226,21.393-37.11,38-50.143c12.576-9.869,19.419-1.798,18.445-20.342
			c-0.531-10.102-7.189-15.734-10.947-24.608c-10.888-25.707,9.932-34.896,8.372-58.675
			C887.756,2241.283,887.134,2235.586,886.169,2229.735z"/>
	</g>
	<g>
		<path d="M1388.31,313.873c11.661,1.986,33.527,7.097,44.238,0.007c11.966-7.921,9.504-28.958,4.43-40.041
			c-9.255-20.212-21.321-30.039-42.244-37.964c-15.105-5.722-34.537-14.136-46.164-25.554c-12.14-11.921-15.589-28.56-24.292-42.683
			c-7.96-12.917-18.466-21.464-31.448-28.983c-16.563-9.592-45.925-22.668-64.832-14.798c-19.606,8.161-34.709,32.642-39.037,52.297
			c-2.392,10.863-1.095,25.61,5.351,34.385c6.199,8.441,16.187,13.875,23.166,22.284c16.17,19.484,33.471,38.305,50.187,57.867
			c7.356,8.61,11.532,19.729,19.28,27.851c7.463,7.823,18.824,17.003,28.503,22.669c9.124,5.342,19.57,10.357,30.566,7.463
			c14.218-3.743,6.366-18.318,9.45-28.682C1359.419,306.698,1378.678,312.232,1388.31,313.873z"/>
		<path d="M1600.811,412.008c11.7,0.222,28.807,6.488,37.956-4.375c7.037-8.355,4.115-19.684-4.404-26.224
			c-19.101-14.664-24.118-16.372-17.246-40.055c4.95-17.063,6.633-32.716-10.807-42.831c-9.395-5.449-20.429-9.14-31.498-8.518
			c-18.044,1.014-32.123,15.644-47.466,23.187c-7.737,3.804-15.052,4.057-23.146,2.13c-16.945-4.033-39.951-12.233-54.958,1.516
			c-11.987,10.982-11.034,26.285-13.339,40.892c-1.523,9.661-8.648,16.438-12.316,25.136c-2.905,6.887,0.739,14.675-1.497,21.721
			c-2.541,8.006-7.572,10.051-14.63,14.102c-9.461,5.43-20.549,10.952-25.147,20.684c-4.646,9.832-1.887,21.717,6.351,28.796
			c17.621,15.143,45.482,7.978,63.631,21.654c9.563,7.207,11.03,12.833,24.518,12.849c14.135,0.017,24.412-9.566,35.802-16.854
			c12.849-8.221,25.82-10.039,39.431-16.495c12.428-5.894,20.415-19.293,26.95-31.333
			C1584.164,428.468,1587.546,411.756,1600.811,412.008z"/>
		<path d="M2191.001,76.074c12.53,3.85,18.212,15.006,28.839,21.483c4.634,2.824,9.552,5.14,14.387,7.588
			c2.526,1.279,12.781,4.922,13.665,7.61c2.838,8.632-5.811,11.913-7.389,19.53c-1.934,9.333,1.244,16.521-5.026,24.287
			c-5.593,6.926-11.047,13.979-13.987,22.088c-3.303,9.11-2.554,19.429-5.496,28.538c-1.892,5.853-5.471,14.668-11.116,17.96
			c-14.21,8.285-36.682,6.162-51.013-0.611c-7.021-3.318-12.48-7.425-18.621-12.004c-5.718-4.264-12.435-7.381-18.254-11.773
			c-14.776-11.155-24.626-29.508-27.888-47.984c-1.938-10.976-5.137-21.308-5.125-32.613c0.01-9.222,3.941-15.981,8.598-23.402
			c8.799-14.021,31.035-25.652,48.391-19.985c7.015,2.291,12.524,8.382,20.086,6.762
			C2171.36,81.337,2179.375,72.502,2191.001,76.074z"/>
		<path d="M2216.904,405.221c26.056-2.229,56.497-10.732,66.346-32.662c10.478-23.332,4.251-37.272-1.666-60.765
			c-5.327-21.147-30.059-47.163-52.095-51.134c-8.853-1.594-20.821-2.048-28.76,2.833c-9,5.535-14.542,15.808-20.852,23.92
			c-7.799,10.027-14.808,15.699-25.945,21.832c-20.161,11.103-34.762-13.558-52.979-16.949c-15.762-2.934-38.412,5.712-48,18.25
			c-8.755,11.449-9.7,26.482-8.961,40.323c0.686,12.848-2.106,27.315-0.199,39.72c3.711,24.133,33.509,58.495,60.155,46.055
			c15.701-7.33,25.389-25.08,41.534-31.087c15.442-5.746,32.824-0.682,48.642,0.116
			C2200.732,406.005,2208.595,405.932,2216.904,405.221z"/>
		<path d="M1621.035,483.672c-20.839-0.007-41.627,17.581-55.846,32.145c-16.692,17.097-31.957,28.568-56.207,25.398
			c-19.758-2.583-32.531-1.87-37.931,20.612c-4.71,19.611,6.5,42.602,21.041,55.402c15.365,13.526,34.894,23.004,53.798,30.514
			c15.955,6.338,37.448,8.445,54.433,3.123c22.617-7.087,36.442-23.309,49.66-42.023c18.21-6.223,32.874-24.134,29.206-44.113
			c-2.181-11.876-9.125-14.952-16.509-22.547c-7.448-7.66-9.787-18.501-12.146-28.679
			C1647.006,498.288,1638.36,483.677,1621.035,483.672z"/>
		<path d="M1344.49,681.442c17.145-8.323,39.515-15.091,49.75-32.322c8.414-14.166,24.346-30.163,27.994-46.739
			c3.993-18.146-1.66-39.441-17.168-50.626c-18.957-13.673-43.799-11.28-62.451,1.645c-19.766,13.696-36.658,28.33-57.894,40.098
			c-17.406,9.646-50.285,12.164-60.08,31.123c-9.778,18.927,7.167,16.914,17.194,25.025c4.29,3.471,5.198,9.709,6.754,15.272
			c1.782,6.369,3.048,8.869,6.397,14.58c16.729,4.121,34.045-13.313,49.803-6.1c6.975,3.193,9.383,9.497,17.026,11.271
			C1329.437,686.438,1338.31,684.442,1344.49,681.442z"/>
		<path d="M2220.174,651.869c-4.083,4.477-1.064,11.019-1.988,16.246c-1.106,6.259-4.334,10.975-8.365,15.787
			c-5.584,6.666-11.343,10.567-19.344,13.689c-11.479,4.48-23.287,7.534-34.402,13.097c-11.271,5.64-22.1,15.791-35.094,17.003
			c-18.936,1.766-20.312-11.39-30.204-22.457c-8.965-10.029-22.651-15.628-29.574-27.564c-13.357-23.029-1.792-47.125-6.202-71
			c-3.282-17.768-10.78-34.792,0.464-51.374c8.598-12.68,23.287-16.19,37.518-19.629c23.105-5.584,37.065-16.933,53.563-32.959
			c16.033-15.576,38.163-32.479,61.061-19.973c10.959,5.991,12.909,23.617,13.371,34.937c0.331,8.119-1.226,15.243,3,22.002
			c8.953,14.319,32.329,9.089,38.774,25.223c8.188,20.495-8.118,32.577-22.989,40.551c-6.203,3.326-15.431,10.65-13.056,19.497
			c1.681,6.259,11.432,10.745,8.319,18.774C2232.552,650.099,2223.682,648.023,2220.174,651.869z"/>
		<path d="M1548.931,764.234c-3.561-16.95-13.566-34.44-22.703-48.775c-9.188-14.415-14.152-31.211-29.221-41.013
			c-6.507-4.231-13.387-8.254-20.47-11.5c-10.981-5.032-34.031-14.971-44.973-7.522c-12.341,8.401-17.796,27.652-29.952,37.973
			c-11.098,9.423-27.568,18.471-29.798,33.282c-1.697,11.281,6.646,22.979,3.715,33.684c-3.423,12.501-19.211,18.858-16.809,34.723
			c3.442,22.727,35.138,29.776,54.502,25.082c21.839-5.296,39.939-15.851,63.035-10.682c17.291,3.871,30.077,14.692,47.816,5.676
			C1548.541,802.728,1553.05,783.843,1548.931,764.234z"/>
		<path d="M1693.787,775.542c-7.827-3.961-14.748-8.262-18.931-13.771c-21.149-27.849-9.999-72.109-59.479-50.359
			c-15.581,6.849-19.226,18.496-19.993,34.583c-1.229,25.779-1.918,37.966-14.826,61.484
			c-12.799,23.324-19.094,121.606,26.603,113.232c24.983-4.578,26.356-29.176,41.632-45.574c0.007-0.007,0.014-0.014,0.021-0.022
			c21.211-22.708,72.466-14.399,86.771-41.387C1754.628,797.799,1719.369,788.489,1693.787,775.542z"/>
		<path d="M2232.37,2051.133c-7.827-3.961-14.748-8.263-18.931-13.771c-21.149-27.85-9.999-72.109-59.479-50.359
			c-15.581,6.849-19.226,18.496-19.993,34.583c-1.229,25.778-1.918,37.966-14.826,61.483
			c-12.799,23.324-19.094,121.606,26.603,113.232c24.983-4.578,26.356-29.176,41.632-45.574c0.007-0.007,0.014-0.014,0.021-0.022
			c21.211-22.708,72.466-14.398,86.771-41.387C2293.211,2073.39,2257.952,2064.079,2232.37,2051.133z"/>
		<path d="M1820.992,542.004c4.896,3.953,10.015,7.475,16.504,8.271c19.074,2.339,30.65-10.151,47.919-12.826
			c8.851-1.371,16.776,0.037,18.935-11.642c2.43-13.146-7.856-16.171-14.372-23.309c-7.913-8.667-12.303-14.45-17.939-25.901
			c-4.438-9.017-12.301-14.322-19.651-20.699c-6.081-5.277-9.229-11.032-14.489-16.815c-13.315-14.636-34.241-24.298-51.059-34.215
			c-22.497-13.266-54.986-29.853-84.859-20.028c-0.111,0.555-0.223,1.11-0.334,1.665c-14.068,4.251-4.471,26.681-8.662,37.242
			c-6.014,15.153-9.555,24.822,4.075,36.703c5.786,5.044,9.29,7.658,12.722,15.274c3.247,7.207,0.782,11.522,2.032,19.948
			c2.001,13.492,27.1,28.834,39.833,31.167c0.111,0.555,0.223,1.11,0.339,1.667c17.918,7.875,29.368-1.254,46.846,0.697
			C1807.834,530.209,1814.199,536.521,1820.992,542.004z"/>
		<path d="M1707.344,641.45c0.642-0.783,1.313-1.579,2.017-2.387c12.663-14.557,28.248-26.372,40.737-41.035
			c7.513-8.821,12.052-23.253,20.272-30.816c21.792-20.051,41.895,0.204,62.672,10.238c3.687,1.78,9.026,0.97,12.917,2.147
			c30.714,9.293,41.986,58.339,13.821,77.052c-18.46,12.265-34.067,30.076-54.277,39.572c-23.076,10.844-38.972,1.05-62.104,2.193
			c-17.62,0.871-35.031,14.066-47.014-7.148C1687.587,675.689,1697.265,653.757,1707.344,641.45z"/>
		<path d="M1168.762,1917.041c0.642-0.783,1.313-1.579,2.017-2.387c12.663-14.557,28.248-26.372,40.737-41.035
			c7.513-8.821,12.052-23.254,20.272-30.816c21.792-20.052,41.895,0.204,62.672,10.237c3.687,1.78,9.026,0.971,12.917,2.147
			c30.713,9.294,41.985,58.339,13.821,77.053c-18.46,12.265-34.067,30.076-54.277,39.572c-23.076,10.844-38.972,1.05-62.104,2.192
			c-17.62,0.871-35.031,14.066-47.014-7.147C1149.005,1951.28,1158.683,1929.348,1168.762,1917.041z"/>
		<path d="M2072.251,223.724c-4.1,14.567-21.779,21.197-25.297,35.925c-2.032,8.507,3.95,16.03,3.022,24.023
			c-1.117,9.633-10.752,14.22-18.97,18.722c-18.397,10.079-36.065,22.251-52.859,32.449c-0.252,0.939-0.054,1.728-0.342,2.658
			c-9.563,4.539-18.89,11.264-29.559,6.913c-9.915-4.044-10.842-14.193-18.325-19.762c-8.063-6-23.104-2.477-33.216-2.98
			c-17.385-0.865-38.36-6.553-53.503-14.804c-24.986-13.614-5.587-36.82,11.749-47.167c10.163-6.066,21.38-10.096,27.751-19.761
			c8.428-12.787,2.654-24.438,5.199-38.557c3.124-17.34,19.427-17.372,30.174-26.736c9.305-8.108,5.852-23.456,11.071-33.86
			c5.693-11.348,17.586-20.437,28.733-26.05c18.779-9.457,42.327-7.283,56.987,7.743c8.343,8.551,11.482,19.385,17.57,29.276
			c5.017,8.15,12.233,14.545,19.034,21.146C2066.243,187.238,2078.406,201.853,2072.251,223.724z"/>
		<path d="M1986.393,404.44c3.444,1.623,7.009,3.492,10.75,5.654c30.461,17.601,59.286,77.285,32.75,109.165
			c-20.397,24.504-71.227,28.753-82.762-3.978c-8.3-23.55-19.556-47.9-34.072-68.187c-9.891-13.822-31.338-30.773-23.794-50.417
			c7.321-19.063,25.275-5.771,39.015-4.629C1950.854,393.924,1966.667,395.146,1986.393,404.44z"/>
		<path d="M2025.977,637.672c4.668,15.461,23.434,32.591,20.074,49.98c-1.775,9.191-11.101,15.304-15.903,23.072
			c-5.792,9.369-4.93,19.296-8.151,28.952c-1.563,4.684-16.421,21.019-21.793,23.12c-9.716,3.798-20.825-6.211-27.194-12.178
			c-7.686-7.201-12.786-11.996-24.48-14.164c-14.23-2.639-26.313-1.19-35.104-15.004c-12.438-19.544,1.833-36.176,3.575-55.98
			c0.586-6.662,1.259-16.278-0.146-22.794c-1.23-5.708-4.768-9.066-4.878-15.003c-0.277-15.017,12.828-16.998,25.071-17
			c9.97-0.002,16.929,0.132,25.703,4.223c5.687,2.651,11.738,5.976,18.229,6.774c9.876,1.213,17.621-4.054,26.944-0.016
			c7.88,3.413,16.382,11.091,17.052,20.02"/>
		<path d="M1143.589,742.401c-7.622,16.823-0.602,31.201,0.223,48.222c0.821,16.94-3.395,40.663,9.197,54.07
			c7.992,8.509,18.593,5.199,29.449,7.224c9.749,1.819,16.527,6.785,25.405,9.616c10.089,3.217,30.813-2.949,38.945-10.861
			c5.82-5.663,6.763-17.843,12.78-25.301c14.211-17.611,39.836-24.89,55.194-41.926c7.875-8.735,14.369-22.622,8.207-34.008
			c-9.491-17.541-42.972-14.253-47.322-33.598c-10.169-8.06-14.866-11.398-27.874-8.694c-10.031,2.085-19.159,7.838-29.57,8.157
			c-16.135,0.494-29.092-13.394-45.337-4.311C1161.108,717.578,1149.193,730.036,1143.589,742.401z"/>
		<path d="M1798.424,260.513c9.387-10.938,26.523-19.646,29.694-34.746c0.391-1.858,0.246-4.845,0.028-6.735
			c-1.102-9.594-9.396-20.38-15.271-27.961c-6.42-8.284-17.114-11.959-25.769-17.346c-10.033-6.245-20.754-12.529-31.774-16.971
			c-19.405-7.821-45.564-12.351-65.8-5.204c-22.367,7.9-47.405,21.985-62.161,41.015c-11.785,15.199-16.613,38.519-4.875,55.128
			c5.535,7.832,12.32,11.207,20.343,16.606c7.494,5.043,15.336,13.736,18.698,22.583c3.54,9.313,4.933,19.606,11.391,27.773
			c5.838,7.382,18.737,13.717,27.623,15.429c13.055,2.516,25.515,4.416,37.237,9.851c4.463,2.069,6.868,5.052,10.811,7.822
			c4.34,3.049,9.646,3.825,14.777,4.673c9.125,1.508,20.567-3.863,25.154-12.214c5.646-10.28,0.96-21.763,0.216-32.502
			c-0.684-9.856-1.039-21.127,0.414-30.853C1790.244,269.618,1793.752,265.957,1798.424,260.513z"/>
		<path d="M1798.392,1357.173c-9.382,9.283-25.495,18.093-39.396,14.732c-10.79-2.607-13.513-13.006-22.51-17.988
			c-22.554-12.49-41.929,11.647-56.701-17.961c-6.245-12.518-10.471-29.791-15.324-43.541c-4.878-13.816-7.585-29.838,7.2-39.444
			c16.468-10.7,30.864,10.138,48.854,2.279c24.691-10.784,39.387-34.38,69.635-21.338c9.721,4.191,16.311,16.163,25.92,21.368
			c7.682,4.16,18.642,3.652,26.893,7.357c8.164,3.667,19.271,11.521,19.558,20.737c0.509,16.406-19.753,19.153-29.979,26.983
			C1816.525,1322.621,1812.332,1343.382,1798.392,1357.173z"/>
		<path d="M1317.186,1371.844c27.198-21.451,44.727-43.307,23.506-77.824c-10.985-17.869-30.764-17.757-42.063-34.568
			c-11.513-17.129-38.762-37.765-55.526-8.695c-6.732,11.673-0.204,31.513-1.805,44.653c-4.047,33.217-63.615,82.553-8.922,105
			c23.308,9.566,33.438-2.453,53.955-12.41C1296.629,1383.001,1307.72,1379.309,1317.186,1371.844z"/>
		<path d="M1794.775,831.555c2.212,4.594,3.989,9.504,4.824,15.097c5.704,38.216-23.027,78.739,13.422,109.46
			c7.375,6.217,20.985,8.904,28.614,17.043c10.094,10.767,10.103,30.683,23.99,37.687c18.953,9.555,44.476-11.803,54.97-28.731
			c20.817-33.583,22.884-128.525,8.847-162.473c-8.204-19.834-26.687-28.149-42.98-39.99
			c-17.768-12.911-13.813-39.836-29.146-55.383c-14.45-14.65-37.364-4.346-51.899,6.566c-11.24,8.438-5.098,18.674-11.854,28.297
			c-15.227,21.682-24.188,11.547-14.726,41.67C1782.447,812.29,1789.74,821.104,1794.775,831.555z"/>
		<path d="M2132.242,870.992c29.889-19.877,62.74-43.642,34.889-78.087c-10.78-13.333-33.292-10.724-48.055-8.529
			c-12.776,1.9-21.792,6.623-34.197-1.133c-13.427-8.393-12.769-21.272-30.327-23.951c-29.082-4.436-30.399,28.533-46.394,44.963
			c-31.658,32.521-7.501,88.411,14.967,121.486c11.799,17.364,27.421,26.225,46.423,13.166
			c15.96-10.968,19.036-31.141,31.573-44.701C2107.957,886.813,2119.844,879.237,2132.242,870.992z"/>
		<path d="M2262.449,1012.905c3.141-5.76,5.046-12.33,6.158-19.727c4.49-29.884-10.23-67.573-28.488-90.845
			c-22.909-29.196-48.538-47.398-60.412-0.381c-5.655,22.393-2.102,18.05-24.052,26.355c-24.854,9.412-56.747,6.357-78.438,23.502
			c-38.031,30.061-0.087,57.851,28.813,72.246c11.001,5.479,23.046,9.449,31.934,18.334c11.774,11.77,11.618,28.051,20.438,40.862
			c26.232,38.1,46.587-16.28,57.563-36.557c7.592-14.022,21.031-10.971,32.381-18.558
			C2254.674,1023.906,2259.216,1018.834,2262.449,1012.905z"/>
		<path d="M2081.248,1175.628c4.883-17.437,0.115-40.8-0.386-54.992c-0.636-18.026,5.011-37.256-0.345-54.073
			c-5.487-17.232-21.012-28.392-33.586-40.448c-20.647-19.795-20.498-51.012-36.666-71.979
			c-33.103-42.929-48.344,46.216-54.241,64.542c-5.305,16.482-16.405,36.528-9.848,54.837c9.068,25.317,27.877,36.494,29.801,65.267
			c1.749,26.151-6.024,58.058,22.039,73.541c23.247,12.826,21.33-6.719,37.817-16.143c9.499-5.43,18.635,3.438,28.308-0.398
			C2073.665,1192.006,2078.734,1184.603,2081.248,1175.628z"/>
		<path d="M2250.451,1329.584c1.313-1.104,2.558-2.136,3.723-3.072c15.243-12.263,20.027-24.543,17.797-44.238
			c-3.506-30.965-47.166-39.728-45.816-69.18c0.526-11.465,16.033-19.732,8.241-32.632c-5.196-8.603-19.315-7.126-27.406-11.16
			c-13.721-6.84-14.889-17.793-25.355-27.091c-35.096-31.176-52.775,15.429-60.094,41.604
			c-8.983,32.126-31.688,39.435-59.221,55.199c-11.454,26.774-7.447,30.815,10.253,55.149c9.724,13.366,11.515,30.815,29.8,38.053
			c21.212,8.393,46.41,1.756,66.611,8.974c14.583,5.211,20.001,26.095,37.461,19.966
			C2220.237,1356.314,2238.266,1339.831,2250.451,1329.584z"/>
		<path d="M1859.823,1223.662c22.374,12.311,59.31,24.671,80.332,7.844c31.358-25.102-0.82-57.005-10.116-82.901
			c-10.111-28.165,0.243-58.138-28.551-77.149c-26.38-17.417-46.904-17.447-73.231-0.728c-31.095,19.747-25.015,43.19-39.451,71.491
			c-9.845,19.299-42.122,42.086-8.448,62.988c10.94,6.791,25.783,2.708,37.762,2.723c18.411,0.023,22.042,3.771,36.035,12.428
			C1855.911,1221.445,1857.808,1222.553,1859.823,1223.662z"/>
		<path d="M1482.174,1332.165c-0.758-0.438-1.562-0.841-2.421-1.2c-27.192-11.361-60.104,31.46-81.101,1.082
			c-20.002-28.939-6.11-70.116,18.152-90.987c11.472-9.867,24.728-18.035,40.182-19.15c27.804-2.007,30.242,33.303,46.169,48.622
			c16.133,15.517,48.276,15,50.147,41.645c1.007,14.354-11.252,31.256-23.778,37.374
			C1506.572,1360.761,1500.252,1342.6,1482.174,1332.165z"/>
		<path d="M1296.772,1215.533c8.673,11.58,18.668,24.089,34.049,23.132c24.063-1.5,27.763-55.858,30.663-73.894
			c5.476-34.047-20.683-58.148-54.692-58.1c-15.475,0.022-34.962,3.195-50.025,0c-19.153-4.062-19.771-21.773-38.256-28.491
			c-27.451-9.977-32.533,27.368-51.223,40.891c-42.44,30.71,45.612,62.863,71.524,61.451c24.817-1.352,35.677,8.166,49.993,24.751
			C1291.415,1208.296,1294.027,1211.868,1296.772,1215.533z"/>
		<path d="M1467.314,945.275c3.042,25.746-4.271,52.515,7.11,78.891c8.224,19.057,23.18,45.858,43.716,53.873
			c28.784,11.233,38.955-17.691,58.268-32.595c19.36-14.941,38.73-19.35,44.006-46.971c7.107-37.214-21.93-46.99-47.716-63.053
			c-38.06-23.709-55.011-101.532-109.79-77.189c-29.52,13.118-28.491,26.851-9.043,52.499
			C1462.366,921.94,1465.922,933.501,1467.314,945.275z"/>
		<path d="M1761.726,962.075c-2.316-17.877-2.553-36.605-3.565-54.105c-19.123-11.626-25.921-23.012-50.786-7.212
			c-19.299,12.263-30.056,38.547-33.827,60.106c-7.547,43.138,17.233,68.197,31.341,105.868
			c8.082,21.578,11.453,61.937,42.019,38.963c9.882-7.434,42.544-41.622,45.431-53.114c4.891-19.469-14.719-38.349-21.766-55.071
			C1765.967,986.581,1763.341,974.535,1761.726,962.075z"/>
		<path d="M1256.193,2107.146c2.212,4.594,3.989,9.504,4.824,15.097c5.704,38.217-23.027,78.739,13.422,109.461
			c7.375,6.217,20.985,8.904,28.614,17.043c10.094,10.767,10.103,30.683,23.99,37.687c18.952,9.555,44.475-11.803,54.969-28.731
			c20.817-33.582,22.884-128.524,8.847-162.473c-8.204-19.834-26.687-28.149-42.98-39.99c-17.767-12.91-13.813-39.836-29.145-55.383
			c-14.45-14.649-37.364-4.346-51.899,6.566c-11.24,8.438-5.098,18.674-11.854,28.297c-15.227,21.682-24.188,11.547-14.726,41.67
			C1243.865,2087.88,1251.158,2096.695,1256.193,2107.146z"/>
		<path d="M1223.144,2237.665c-2.316-17.877-2.553-36.605-3.565-54.105c-19.123-11.626-25.921-23.012-50.786-7.212
			c-19.299,12.263-30.056,38.547-33.827,60.106c-7.547,43.138,17.233,68.197,31.341,105.868
			c8.082,21.578,11.453,61.937,42.019,38.963c9.882-7.434,42.544-41.621,45.431-53.113c4.891-19.47-14.719-38.349-21.766-55.071
			C1227.385,2262.172,1224.759,2250.125,1223.144,2237.665z"/>
		<path d="M1694.33,1154.108c-0.579-1.275-1.179-2.533-1.798-3.772c-6.031-12.08-16.686-21.371-22.586-33.123
			c-6.282-12.514-4.397-27.539-16.08-37.323c-12.018-10.065-36.905-8.635-49.977-2.854c-1.279,0.543-2.547,1.136-3.799,1.79
			c-0.457,0.239-0.902,0.48-1.352,0.722c-15.459,7.941-32.588,10.96-47.777,19.64c-10.368,5.925-12.463,6.854-25.782,6.656
			c-9.87-0.146-20.214-1.029-29.516,2.856c-13.092,5.467-20.794,18.483-32.135,26.372c-41.696,29.007,6.949,45.605,33.872,55.858
			c14.093,5.368,23.849,8.226,32.956,20.368c11.605,15.473,14.23,38.019,32.307,48.978c22.651,13.73,40.711-1.45,54.628-18.591
			c13.663-16.827,17.52-18.359,39.86-24.292C1692.326,1208.051,1711.609,1192.15,1694.33,1154.108z"/>
		<path d="M2020.757,2607.756c-0.758-0.438-1.562-0.841-2.421-1.2c-27.192-11.361-60.104,31.46-81.101,1.082
			c-20.002-28.939-6.11-70.116,18.152-90.987c11.472-9.867,24.728-18.035,40.182-19.15c27.804-2.008,30.242,33.303,46.169,48.622
			c16.133,15.517,48.276,15,50.147,41.645c1.007,14.354-11.252,31.256-23.778,37.374
			C2045.155,2636.352,2038.835,2618.19,2020.757,2607.756z"/>
		<path d="M2232.913,2429.698c-0.579-1.274-1.179-2.533-1.798-3.771c-6.031-12.08-16.686-21.371-22.586-33.123
			c-6.282-12.514-4.397-27.539-16.08-37.323c-12.018-10.065-36.905-8.635-49.977-2.854c-1.279,0.543-2.547,1.136-3.799,1.789
			c-0.457,0.239-0.902,0.48-1.352,0.723c-15.459,7.941-32.588,10.96-47.777,19.64c-10.368,5.925-12.463,6.854-25.782,6.656
			c-9.87-0.146-20.214-1.029-29.516,2.855c-13.092,5.468-20.794,18.483-32.135,26.372c-41.696,29.008,6.949,45.605,33.872,55.858
			c14.093,5.367,23.849,8.226,32.956,20.368c11.605,15.473,14.23,38.019,32.307,48.978c22.651,13.73,40.711-1.45,54.628-18.591
			c13.663-16.827,17.52-18.359,39.86-24.292C2230.909,2483.642,2250.192,2467.741,2232.913,2429.698z"/>
		<path d="M1424.751,954.145c-3.036-18.411-9.474-38.344-21.376-50.692c-16.117-16.72-41.861-20.562-56.165-38.885
			c-13.229-16.948-10.535-36.189-40.536-33.897c-37.127,2.836-21.154,45.125-43.834,61.944
			c-12.859,9.537-29.872,6.257-32.161,27.889c-1.792,16.933,15.471,29.235,14.183,46.125c-1.372,17.983-19.765,40.111,6.312,48.429
			c11.115,3.545,17.238-2.889,28.368,3.725c12.966,7.705,16.155,23.849,26.338,34.056c12.665,12.698,27.252,19.966,37.933,36.286
			c7.725,11.801,14.455,31.991,29,35.587c37.319,9.226,21.393-37.11,38-50.143c12.576-9.869,19.419-1.798,18.445-20.341
			c-0.531-10.102-7.189-15.735-10.947-24.608c-10.888-25.708,9.932-34.896,8.372-58.675
			C1426.338,965.692,1425.716,959.996,1424.751,954.145z"/>
		<path d="M1926.893,1589.463c11.661,1.986,33.527,7.098,44.238,0.007c11.966-7.921,9.504-28.957,4.43-40.041
			c-9.255-20.212-21.321-30.038-42.244-37.964c-15.105-5.722-34.537-14.136-46.164-25.554c-12.14-11.921-15.589-28.56-24.292-42.683
			c-7.961-12.917-18.466-21.464-31.448-28.982c-16.563-9.593-45.925-22.668-64.833-14.799
			c-19.605,8.161-34.708,32.643-39.036,52.297c-2.393,10.863-1.096,25.61,5.35,34.386c6.2,8.441,16.188,13.874,23.166,22.283
			c16.17,19.484,33.471,38.305,50.187,57.867c7.356,8.609,11.533,19.729,19.281,27.851c7.463,7.823,18.824,17.003,28.503,22.669
			c9.124,5.342,19.57,10.357,30.566,7.463c14.218-3.743,6.366-18.318,9.45-28.683
			C1898.002,1582.288,1917.261,1587.822,1926.893,1589.463z"/>
		<path d="M2139.394,1687.599c11.7,0.222,28.807,6.488,37.956-4.375c7.037-8.354,4.115-19.684-4.404-26.224
			c-19.101-14.664-24.118-16.372-17.246-40.055c4.95-17.063,6.633-32.717-10.807-42.831c-9.395-5.449-20.429-9.141-31.498-8.519
			c-18.044,1.015-32.123,15.644-47.466,23.188c-7.737,3.804-15.052,4.057-23.146,2.13c-16.945-4.033-39.951-12.232-54.958,1.516
			c-11.987,10.982-11.034,26.285-13.339,40.893c-1.523,9.661-8.648,16.438-12.316,25.136c-2.905,6.887,0.739,14.675-1.497,21.721
			c-2.541,8.006-7.572,10.051-14.63,14.103c-9.461,5.43-20.549,10.952-25.147,20.684c-4.646,9.831-1.887,21.717,6.351,28.796
			c17.621,15.143,45.482,7.978,63.631,21.653c9.563,7.207,11.03,12.833,24.518,12.85c14.135,0.017,24.412-9.566,35.802-16.854
			c12.849-8.221,25.82-10.039,39.431-16.495c12.428-5.894,20.415-19.293,26.95-31.333
			C2122.747,1704.059,2126.129,1687.347,2139.394,1687.599z"/>
		<path d="M1652.418,1351.664c12.531,3.85,18.213,15.006,28.84,21.483c4.633,2.824,9.552,5.14,14.387,7.589
			c2.526,1.279,12.78,4.922,13.664,7.61c2.839,8.632-5.811,11.913-7.389,19.529c-1.934,9.333,1.245,16.521-5.025,24.287
			c-5.593,6.926-11.048,13.979-13.987,22.088c-3.303,9.11-2.554,19.429-5.497,28.537c-1.891,5.853-5.47,14.669-11.115,17.96
			c-14.211,8.285-36.682,6.162-51.014-0.611c-7.02-3.317-12.479-7.425-18.62-12.004c-5.718-4.264-12.435-7.381-18.254-11.773
			c-14.777-11.154-24.626-29.508-27.889-47.984c-1.938-10.976-5.136-21.308-5.124-32.612c0.01-9.222,3.94-15.981,8.598-23.402
			c8.799-14.021,31.035-25.652,48.391-19.985c7.015,2.291,12.524,8.383,20.085,6.762
			C1632.777,1356.928,1640.792,1348.093,1652.418,1351.664z"/>
		<path d="M1678.322,1680.812c26.056-2.229,56.497-10.732,66.345-32.662c10.478-23.332,4.252-37.272-1.666-60.765
			c-5.326-21.147-30.058-47.163-52.095-51.134c-8.852-1.594-20.82-2.049-28.759,2.833c-9,5.535-14.542,15.809-20.852,23.92
			c-7.8,10.027-14.809,15.699-25.946,21.832c-20.16,11.104-34.761-13.558-52.979-16.949c-15.761-2.934-38.412,5.713-47.999,18.25
			c-8.756,11.448-9.701,26.482-8.962,40.323c0.687,12.848-2.106,27.315-0.199,39.72c3.711,24.133,33.509,58.494,60.156,46.055
			c15.7-7.33,25.388-25.08,41.534-31.088c15.441-5.745,32.823-0.682,48.642,0.116
			C1662.15,1681.596,1670.012,1681.522,1678.322,1680.812z"/>
		<path d="M1876.092,1763.965c-3.167-12.871-7.681-25.814-4.998-39.779c3.776-19.648,13.731-45.823-1.596-63.109
			c-15.882-17.903-35.554-5.783-54.654-1.096c-7.514,1.844-15.981,1.984-22.639,6.588c-7.373,5.098-8.951,14.07-16.01,19.113
			c-7.128,5.088-16.537,4.152-24.749,3.335c-13.38-1.33-29.112-3.807-42.075,0.965c-17.227,6.34-23.062,32.446-11.68,45.84
			c14.882,17.512,48.934,17.083,57.926,39.219c6.105,15.029,0.14,32.118,15.8,43.219c15.237,10.801,40.769,17.496,59,13.253
			c18.484-4.303,45.823-24.112,48.096-44.417C1879.388,1779.275,1877.979,1771.633,1876.092,1763.965z"/>
		<path d="M1337.509,488.374c-3.166-12.871-7.68-25.814-4.997-39.779c3.776-19.648,13.73-45.823-1.596-63.109
			c-15.882-17.903-35.554-5.783-54.654-1.096c-7.514,1.844-15.981,1.984-22.639,6.588c-7.373,5.098-8.951,14.07-16.01,19.113
			c-7.128,5.088-16.537,4.152-24.749,3.335c-13.38-1.33-29.112-3.807-42.075,0.965c-17.227,6.34-23.062,32.446-11.68,45.84
			c14.882,17.512,48.934,17.083,57.926,39.219c6.105,15.029,0.14,32.118,15.8,43.219c15.237,10.801,40.769,17.496,59,13.253
			c18.484-4.303,45.822-24.112,48.095-44.417C1340.805,503.685,1339.396,496.042,1337.509,488.374z"/>
		<path d="M2159.618,1759.263c-20.839-0.007-41.627,17.581-55.846,32.145c-16.692,17.098-31.957,28.568-56.207,25.398
			c-19.758-2.583-32.531-1.869-37.931,20.612c-4.71,19.611,6.5,42.602,21.041,55.402c15.365,13.526,34.894,23.004,53.798,30.514
			c15.955,6.338,37.448,8.444,54.433,3.122c22.617-7.087,36.442-23.309,49.66-42.022c18.21-6.223,32.874-24.134,29.206-44.113
			c-2.181-11.877-9.125-14.952-16.509-22.547c-7.448-7.66-9.787-18.501-12.146-28.679
			C2185.589,1773.879,2176.943,1759.268,2159.618,1759.263z"/>
		<path d="M1883.073,1957.033c17.145-8.323,39.515-15.091,49.75-32.322c8.414-14.166,24.346-30.163,27.994-46.739
			c3.993-18.146-1.66-39.44-17.168-50.626c-18.957-13.674-43.799-11.28-62.451,1.645c-19.766,13.695-36.658,28.33-57.894,40.098
			c-17.407,9.646-50.285,12.164-60.08,31.123c-9.779,18.927,7.166,16.913,17.193,25.024c4.291,3.471,5.198,9.709,6.755,15.272
			c1.781,6.369,3.048,8.869,6.396,14.58c16.729,4.121,34.045-13.313,49.803-6.1c6.976,3.193,9.383,9.497,17.026,11.271
			C1868.02,1962.028,1876.893,1960.033,1883.073,1957.033z"/>
		<path d="M1681.592,1927.46c-4.083,4.477-1.065,11.019-1.989,16.246c-1.105,6.259-4.333,10.975-8.364,15.787
			c-5.584,6.665-11.344,10.566-19.344,13.689c-11.479,4.48-23.287,7.534-34.403,13.097c-11.271,5.64-22.099,15.791-35.094,17.003
			c-18.935,1.766-20.311-11.39-30.203-22.457c-8.965-10.028-22.651-15.628-29.574-27.563c-13.358-23.029-1.793-47.126-6.203-71
			c-3.282-17.768-10.779-34.791,0.464-51.374c8.598-12.68,23.288-16.19,37.519-19.629c23.105-5.584,37.064-16.933,53.563-32.959
			c16.034-15.576,38.163-32.479,61.062-19.973c10.959,5.991,12.908,23.617,13.371,34.937c0.331,8.119-1.227,15.243,3,22.002
			c8.953,14.319,32.329,9.09,38.773,25.223c8.188,20.495-8.118,32.577-22.989,40.552c-6.202,3.326-15.43,10.65-13.055,19.497
			c1.68,6.259,11.431,10.745,8.318,18.773C1693.97,1925.689,1685.099,1923.614,1681.592,1927.46z"/>
		<path d="M2087.514,2039.824c-3.561-16.949-13.566-34.44-22.703-48.774c-9.188-14.415-14.152-31.212-29.221-41.013
			c-6.507-4.231-13.387-8.255-20.47-11.5c-10.981-5.032-34.031-14.972-44.973-7.522c-12.341,8.401-17.796,27.652-29.952,37.974
			c-11.098,9.423-27.568,18.471-29.798,33.281c-1.697,11.281,6.646,22.979,3.715,33.684c-3.423,12.501-19.211,18.858-16.809,34.723
			c3.442,22.727,35.138,29.776,54.502,25.082c21.839-5.296,39.939-15.851,63.035-10.682c17.291,3.871,30.077,14.692,47.816,5.677
			C2087.124,2078.318,2091.633,2059.434,2087.514,2039.824z"/>
		<path d="M1282.41,1817.595c4.896,3.952,10.015,7.475,16.504,8.271c19.074,2.34,30.65-10.15,47.918-12.826
			c8.851-1.371,16.776,0.037,18.935-11.642c2.43-13.146-7.856-16.171-14.372-23.309c-7.913-8.667-12.303-14.449-17.938-25.901
			c-4.438-9.017-12.301-14.322-19.651-20.699c-6.081-5.276-9.229-11.031-14.489-16.815c-13.315-14.636-34.241-24.298-51.059-34.215
			c-22.497-13.266-54.986-29.853-84.859-20.028c-0.111,0.556-0.223,1.11-0.334,1.665c-14.068,4.252-4.471,26.681-8.662,37.242
			c-6.014,15.153-9.555,24.822,4.075,36.703c5.786,5.044,9.29,7.658,12.722,15.274c3.247,7.206,0.782,11.521,2.032,19.948
			c2.001,13.492,27.1,28.834,39.833,31.167c0.111,0.556,0.223,1.11,0.339,1.667c17.918,7.875,29.368-1.254,46.846,0.697
			C1269.252,1805.8,1275.617,1812.111,1282.41,1817.595z"/>
		<path d="M1533.668,1499.314c-4.099,14.567-21.778,21.197-25.297,35.925c-2.032,8.508,3.95,16.03,3.023,24.023
			c-1.117,9.633-10.752,14.22-18.97,18.722c-18.398,10.079-36.066,22.252-52.859,32.449c-0.252,0.938-0.055,1.728-0.342,2.658
			c-9.564,4.539-18.891,11.264-29.559,6.913c-9.915-4.045-10.843-14.193-18.326-19.762c-8.063-6-23.103-2.478-33.215-2.98
			c-17.385-0.865-38.36-6.554-53.503-14.805c-24.986-13.614-5.587-36.82,11.749-47.167c10.163-6.066,21.379-10.096,27.75-19.762
			c8.428-12.786,2.655-24.438,5.199-38.557c3.125-17.34,19.428-17.372,30.174-26.736c9.305-8.107,5.852-23.456,11.071-33.859
			c5.694-11.349,17.586-20.438,28.733-26.051c18.78-9.456,42.328-7.283,56.988,7.743c8.342,8.551,11.481,19.385,17.569,29.276
			c5.017,8.15,12.234,14.545,19.034,21.146C1527.661,1462.828,1539.823,1477.443,1533.668,1499.314z"/>
		<path d="M1447.81,1680.03c3.444,1.623,7.009,3.492,10.75,5.654c30.461,17.601,59.286,77.285,32.75,109.164
			c-20.397,24.505-71.227,28.753-82.762-3.978c-8.3-23.55-19.556-47.899-34.072-68.187c-9.891-13.822-31.338-30.773-23.794-50.418
			c7.321-19.063,25.275-5.771,39.015-4.629C1412.271,1669.515,1428.083,1670.737,1447.81,1680.03z"/>
		<path d="M1487.395,1913.263c4.668,15.461,23.433,32.591,20.074,49.979c-1.775,9.191-11.101,15.304-15.903,23.072
			c-5.793,9.369-4.93,19.296-8.151,28.951c-1.563,4.684-16.421,21.02-21.794,23.12c-9.715,3.798-20.825-6.212-27.193-12.179
			c-7.687-7.2-12.787-11.996-24.48-14.163c-14.231-2.639-26.313-1.19-35.104-15.004c-12.438-19.544,1.833-36.176,3.574-55.98
			c0.586-6.662,1.259-16.278-0.146-22.794c-1.23-5.708-4.768-9.066-4.877-15.003c-0.277-15.018,12.827-16.998,25.071-17
			c9.969-0.002,16.929,0.132,25.702,4.223c5.687,2.65,11.738,5.976,18.229,6.773c9.876,1.214,17.622-4.054,26.945-0.016
			c7.879,3.412,16.382,11.091,17.052,20.02"/>
		<path d="M1682.172,2017.992c-7.623,16.823-0.603,31.201,0.223,48.222c0.82,16.94-3.396,40.663,9.197,54.07
			c7.992,8.509,18.592,5.198,29.448,7.224c9.75,1.819,16.528,6.785,25.406,9.616c10.088,3.217,30.813-2.949,38.944-10.861
			c5.82-5.663,6.764-17.843,12.781-25.301c14.211-17.611,39.835-24.89,55.194-41.926c7.875-8.735,14.368-22.622,8.207-34.009
			c-9.491-17.54-42.972-14.253-47.323-33.598c-10.168-8.06-14.865-11.397-27.874-8.694c-10.03,2.085-19.159,7.839-29.57,8.157
			c-16.135,0.494-29.091-13.394-45.336-4.311C1699.69,1993.168,1687.776,2005.626,1682.172,2017.992z"/>
		<path d="M2024.179,1346.497c16.181,56.565,107.278,28.09,116.373,68.283c4.58,20.236-20.815,43.09-24.987,62.563
			c-4.403,20.556,5.59,44.28-23.86,48.175c-43.604,5.768-75.906-32.167-105.505-56.402c-31.789-26.028-79.016-22.019-108.945-48.814
			c-6.544-5.86-7.809-15.42-7.473-23.824c0.613-15.348,35.323-24.776,41.901-44.224c8.337-24.646,3.539-70.766,37.021-76.172
			c33.843-5.466,49.562,36.09,67.49,54.904c0.008,0.008,0.016,0.016,0.022,0.024c4.33,4.575,6.375,9.911,7.944,15.424
			C2024.167,1346.455,2024.172,1346.477,2024.179,1346.497z"/>
		<path d="M1485.596,70.906c16.181,56.565,107.278,28.09,116.373,68.283c4.58,20.236-20.815,43.09-24.987,62.563
			c-4.403,20.556,5.59,44.28-23.86,48.175c-43.604,5.768-75.906-32.167-105.505-56.402c-31.789-26.028-79.016-22.019-108.945-48.814
			c-6.543-5.86-7.808-15.42-7.472-23.824c0.613-15.348,35.322-24.776,41.9-44.224c8.337-24.646,3.539-70.766,37.021-76.172
			c33.843-5.466,49.562,36.09,67.49,54.904c0.008,0.008,0.016,0.016,0.022,0.024c4.33,4.575,6.375,9.911,7.944,15.424
			C1485.583,70.864,1485.589,70.886,1485.596,70.906z"/>
		<path d="M1259.842,1536.104c9.387-10.938,26.523-19.646,29.694-34.745c0.391-1.858,0.246-4.846,0.028-6.735
			c-1.102-9.594-9.396-20.38-15.271-27.961c-6.42-8.283-17.114-11.959-25.769-17.346c-10.033-6.244-20.754-12.528-31.774-16.971
			c-19.405-7.821-45.564-12.352-65.8-5.204c-22.367,7.9-47.405,21.985-62.161,41.016c-11.785,15.198-16.613,38.519-4.875,55.128
			c5.535,7.832,12.32,11.207,20.343,16.606c7.494,5.043,15.336,13.735,18.698,22.582c3.54,9.313,4.933,19.606,11.391,27.773
			c5.838,7.382,18.737,13.717,27.623,15.429c13.055,2.517,25.515,4.416,37.237,9.852c4.463,2.069,6.868,5.052,10.811,7.821
			c4.34,3.049,9.646,3.825,14.777,4.673c9.125,1.508,20.567-3.863,25.154-12.214c5.646-10.28,0.96-21.763,0.216-32.502
			c-0.684-9.856-1.039-21.128,0.414-30.853C1251.662,1545.208,1255.17,1541.547,1259.842,1536.104z"/>
		<path d="M1259.81,2632.764c-9.382,9.283-25.495,18.093-39.396,14.732c-10.79-2.607-13.513-13.006-22.51-17.988
			c-22.554-12.49-41.929,11.647-56.701-17.961c-6.245-12.518-10.471-29.791-15.324-43.541c-4.878-13.816-7.585-29.838,7.2-39.444
			c16.468-10.7,30.864,10.138,48.854,2.279c24.691-10.784,39.387-34.38,69.635-21.338c9.721,4.191,16.311,16.163,25.92,21.368
			c7.682,4.16,18.642,3.652,26.893,7.357c8.164,3.667,19.271,11.521,19.558,20.737c0.509,16.406-19.753,19.153-29.979,26.983
			C1277.943,2598.212,1273.75,2618.973,1259.81,2632.764z"/>
		<path d="M1855.768,2647.435c27.199-21.451,44.728-43.307,23.507-77.824c-10.986-17.869-30.765-17.757-42.063-34.568
			c-11.513-17.129-38.762-37.765-55.526-8.695c-6.732,11.673-0.204,31.513-1.805,44.653c-4.047,33.217-63.615,82.553-8.922,105
			c23.308,9.566,33.438-2.453,53.955-12.41C1835.211,2658.592,1846.302,2654.899,1855.768,2647.435z"/>
		<path d="M1593.659,2146.583c29.89-19.878,62.74-43.642,34.89-78.088c-10.78-13.333-33.292-10.724-48.055-8.528
			c-12.777,1.9-21.793,6.622-34.198-1.133c-13.426-8.394-12.769-21.272-30.327-23.951c-29.081-4.436-30.398,28.533-46.393,44.963
			c-31.658,32.521-7.501,88.411,14.967,121.486c11.799,17.364,27.421,26.225,46.423,13.165
			c15.959-10.968,19.035-31.141,31.573-44.701C1569.374,2162.403,1581.261,2154.827,1593.659,2146.583z"/>
		<path d="M1723.867,2288.495c3.14-5.76,5.046-12.329,6.157-19.727c4.491-29.884-10.23-67.573-28.487-90.845
			c-22.909-29.196-48.539-47.398-60.412-0.381c-5.655,22.393-2.103,18.05-24.053,26.355c-24.853,9.412-56.747,6.357-78.438,23.502
			c-38.031,30.061-0.088,57.851,28.813,72.246c11.001,5.479,23.046,9.449,31.934,18.334c11.773,11.771,11.617,28.051,20.438,40.862
			c26.232,38.101,46.586-16.28,57.563-36.557c7.592-14.022,21.031-10.971,32.38-18.559
			C1716.092,2299.496,1720.633,2294.425,1723.867,2288.495z"/>
		<path d="M1542.665,2451.219c4.884-17.437,0.115-40.8-0.385-54.991c-0.636-18.026,5.011-37.256-0.345-54.073
			c-5.488-17.232-21.012-28.392-33.587-40.448c-20.646-19.795-20.498-51.012-36.665-71.979
			c-33.104-42.929-48.344,46.217-54.242,64.542c-5.305,16.481-16.404,36.528-9.847,54.837c9.067,25.316,27.876,36.494,29.801,65.267
			c1.749,26.15-6.024,58.058,22.039,73.541c23.246,12.825,21.33-6.719,37.816-16.144c9.499-5.43,18.635,3.438,28.309-0.397
			C1535.083,2467.597,1540.152,2460.193,1542.665,2451.219z"/>
		<path d="M1711.869,2605.175c1.313-1.104,2.558-2.136,3.722-3.072c15.244-12.263,20.027-24.543,17.798-44.238
			c-3.507-30.965-47.167-39.729-45.816-69.18c0.525-11.466,16.033-19.732,8.241-32.633c-5.197-8.603-19.315-7.126-27.407-11.159
			c-13.721-6.841-14.888-17.793-25.355-27.091c-35.096-31.177-52.775,15.429-60.094,41.604
			c-8.983,32.126-31.688,39.435-59.22,55.199c-11.454,26.774-7.448,30.815,10.253,55.149c9.723,13.366,11.514,30.815,29.8,38.053
			c21.212,8.393,46.409,1.756,66.61,8.974c14.584,5.211,20.002,26.095,37.461,19.966
			C1681.654,2631.905,1699.683,2615.422,1711.869,2605.175z"/>
		<path d="M1321.241,2499.253c22.373,12.311,59.309,24.671,80.331,7.844c31.358-25.102-0.82-57.005-10.116-82.9
			c-10.111-28.165,0.243-58.138-28.551-77.149c-26.379-17.417-46.903-17.446-73.23-0.728c-31.095,19.747-25.015,43.19-39.451,71.491
			c-9.845,19.299-42.122,42.086-8.448,62.987c10.94,6.791,25.783,2.708,37.762,2.723c18.411,0.023,22.042,3.771,36.035,12.428
			C1317.329,2497.035,1319.226,2498.144,1321.241,2499.253z"/>
		<path d="M1835.355,2491.124c8.673,11.58,18.668,24.089,34.049,23.132c24.063-1.5,27.763-55.858,30.663-73.894
			c5.476-34.048-20.683-58.148-54.692-58.1c-15.476,0.021-34.962,3.194-50.026,0c-19.153-4.062-19.771-21.773-38.256-28.491
			c-27.451-9.978-32.532,27.367-51.222,40.891c-42.441,30.71,45.612,62.862,71.524,61.451c24.816-1.353,35.676,8.165,49.993,24.751
			C1829.997,2483.887,1832.61,2487.459,1835.355,2491.124z"/>
		<path d="M2005.897,2220.865c3.042,25.746-4.271,52.516,7.11,78.892c8.224,19.057,23.18,45.858,43.716,53.873
			c28.784,11.233,38.955-17.691,58.268-32.596c19.36-14.94,38.73-19.35,44.006-46.971c7.107-37.215-21.93-46.99-47.716-63.054
			c-38.06-23.709-55.011-101.532-109.79-77.188c-29.52,13.118-28.491,26.851-9.043,52.499
			C2000.949,2197.531,2004.505,2209.092,2005.897,2220.865z"/>
		<path d="M1963.334,2229.735c-3.036-18.411-9.474-38.344-21.376-50.691c-16.117-16.72-41.861-20.563-56.165-38.885
			c-13.229-16.948-10.535-36.189-40.536-33.897c-37.127,2.837-21.154,45.126-43.834,61.944
			c-12.859,9.537-29.872,6.257-32.162,27.889c-1.792,16.934,15.471,29.235,14.184,46.125c-1.372,17.983-19.765,40.111,6.311,48.429
			c11.116,3.545,17.239-2.889,28.368,3.725c12.966,7.704,16.156,23.849,26.338,34.056c12.666,12.698,27.252,19.966,37.934,36.286
			c7.725,11.801,14.455,31.991,29,35.587c37.319,9.226,21.393-37.11,38-50.143c12.576-9.869,19.419-1.798,18.445-20.342
			c-0.531-10.102-7.189-15.734-10.947-24.608c-10.888-25.707,9.932-34.896,8.372-58.675
			C1964.921,2241.283,1964.299,2235.586,1963.334,2229.735z"/>
	</g>
</g>
</svg>
