<svg xmlns="http://www.w3.org/2000/svg" xmlns:xlink="http://www.w3.org/1999/xlink" width="143.437" height="154.118" viewBox="0 0 143.437 154.118"><defs><style>.a{fill:#fff;}.b{filter:url(#c);}.c{filter:url(#a);}</style><filter id="a" x="26.715" y="22.42" width="116.722" height="131.698" filterUnits="userSpaceOnUse"><feOffset dy="3" input="SourceAlpha"/><feGaussianBlur stdDeviation="3" result="b"/><feFlood flood-opacity="0.161"/><feComposite operator="in" in2="b"/><feComposite in="SourceGraphic"/></filter><filter id="c" x="0" y="0" width="104.302" height="108.756" filterUnits="userSpaceOnUse"><feOffset dy="3" input="SourceAlpha"/><feGaussianBlur stdDeviation="3" result="d"/><feFlood flood-opacity="0.161"/><feComposite operator="in" in2="d"/><feComposite in="SourceGraphic"/></filter></defs><g transform="translate(-1660.218 -58.226)"><path class="a" d="M0,5.785a6.147,6.147,0,0,0,4.09,5.785V0A6.147,6.147,0,0,0,0,5.785Z" transform="translate(1784.937 149.355) rotate(43)"/><path class="a" d="M5.785,0A6.147,6.147,0,0,0,0,4.09H11.571A6.147,6.147,0,0,0,5.785,0Z" transform="translate(1719.164 171.497) rotate(43)"/><g transform="translate(143 -347.163)"><g class="c" transform="matrix(1, 0, 0, 1, 1517.22, 405.39)"><path class="a" d="M3026.333-6001.112h0l-16.869-15.189a10.258,10.258,0,0,0-1.966-12.792,10.214,10.214,0,0,0-6.843-2.625,10.155,10.155,0,0,0-6.084,2.008L2977.7-6044.9l62.945-69.909,33.435,30.1-17.789,19.758a2.051,2.051,0,0,0-.2,2.468,2.119,2.119,0,0,0,.356.42,2.044,2.044,0,0,0,1.37.524,2.054,2.054,0,0,0,.6-.088,13.258,13.258,0,0,1,3.882-.581,16.614,16.614,0,0,1,8.147,2.333,26.618,26.618,0,0,1,5.252,3.941l-2.969,3.3a10.222,10.222,0,0,0-5.188-1.417,10.247,10.247,0,0,0-7.6,3.384,10.256,10.256,0,0,0-.618,12.926l-7.866,8.738-12.214,2.007a2.061,2.061,0,0,0-1.631,1.444,2.06,2.06,0,0,0,.6,2.095l4.559,4.1-16.42,18.236Zm-2.553-45.228h0l-1.361,7.072,3.571,3.1,1.214-10.051,20.581-4.925-3.312-2.877-7.072,1.056-11.057,3.672,1.648-6.748-3.959-3.442-1.243,9.427-12.968,2.986,1.119,4.875,12.837-4.149Zm13.247-51.011h0l-36.5,41.989,6.567,5.707,15.306-17.608,7.107,9.2,9.419-10.836-10.317-5.509,8.776-10.1,6.956,6.048,6.209-7.142-13.523-11.755Zm14.065,12.227h0l-6.269,7.212,1.1.961,6.269-7.211Zm25.332,24.463h0a22.994,22.994,0,0,0-13.157-5.35l12.171-13.517.988,18.865Z" transform="translate(-2941.99 6143.23)"/></g><g class="b" transform="matrix(1, 0, 0, 1, 1517.22, 405.39)"><path class="a" d="M2960.543-6064.734c-7.587-6.83-9.9-12.609-9.505-13.833.181-.226.405-.495.667-.8l1.332-1.478a43.419,43.419,0,0,0,10.242,13.074l2.737-3.04a37.022,37.022,0,0,1-9.983-13.363q.071-.1.146-.208c4.367-4.792,10.815-11.71,17.823-19.243q1.072-1.144,2.183-2.347c4.681-5.033,9.538-10.267,14.134-15.264a43.421,43.421,0,0,0,9.907,12.431l2.736-3.04a37,37,0,0,1-9.656-12.646c.853-.932,1.7-1.856,2.521-2.761a43.423,43.423,0,0,0,9.872,12.367l2.737-3.04a68.756,68.756,0,0,1-10.318-11.85c7.713-8.518,13.628-15.327,14.925-17.621a38.862,38.862,0,0,0,10.138,13.19,38.852,38.852,0,0,0,14.116,8.682l-.83.933c-14.6,14.947-25.542,27.11-49.437,54.525-3.56,4.034-7.406,8.423-11.595,13.24a.965.965,0,0,1-.7.186C2972.787-6056.641,2967.3-6058.652,2960.543-6064.734Z" transform="translate(-2942 6153.4)"/></g></g><path class="a" d="M18.405,0V4.051h-4.09V0C4.908.354,0,3.07,0,4.051,0,5.1,5.624,8.141,16.36,8.141S32.72,5.1,32.72,4.051C32.72,3.07,27.812.354,18.405,0Z" transform="translate(1736.488 58.919) rotate(43)"/></g></svg>