<svg xmlns="http://www.w3.org/2000/svg" xmlns:xlink="http://www.w3.org/1999/xlink" width="123" height="103" viewBox="0 0 123 103"><defs><style>.a{fill:#D95959;}.a,.e{stroke:#F27983;}.b,.e{fill:none;}.b{stroke:rgba(0,0,0,0);}.c{fill:#efecec;}.c,.d,.e{fill-rule:evenodd;}.d{fill:#fff;}.f{filter:url(#a);}</style><filter id="a" x="44.793" y="44.92" width="32.462" height="20.56" filterUnits="userSpaceOnUse"><feOffset dy="3" input="SourceAlpha"/><feGaussianBlur stdDeviation="3" result="b"/><feFlood flood-color="#737373" flood-opacity="0.102" result="c"/><feComposite operator="out" in="SourceGraphic" in2="b"/><feComposite operator="in" in="c"/><feComposite operator="in" in2="SourceGraphic"/></filter></defs><g transform="translate(-914.5 -4711.5)"><path class="a" d="M120,102H2a2,2,0,0,1-2-2V2A2,2,0,0,1,2,0H40.663l20.36,20.374L81.338,0H120a2,2,0,0,1,2,2v98A2,2,0,0,1,120,102Z" transform="translate(915 4712.001)"/><g transform="translate(991.047 4755) rotate(90)"><rect class="b" width="24" height="24" transform="translate(0 3.524)"/><g data-type="innerShadowGroup"><path class="c" d="M27.146,9.622,23.524,6,8,21.524,23.524,37.047l3.622-3.622-11.9-11.9Z" transform="translate(-5.873 -6)"/><g class="f" transform="matrix(0, -1, 1, 0, -43.5, 76.55)"><path class="d" d="M27.146,9.622,23.524,6,8,21.524,23.524,37.047l3.622-3.622-11.9-11.9Z" transform="translate(82.55 37.63) rotate(90)"/></g><path class="e" d="M27.146,9.622,23.524,6,8,21.524,23.524,37.047l3.622-3.622-11.9-11.9Z" transform="translate(-5.873 -6)"/></g></g></g></svg>