<svg xmlns="http://www.w3.org/2000/svg" width="800.837" height="417.547" viewBox="0 0 800.837 417.547"><defs><style>.a{fill:#f27983;}.b{fill:#7b77f2;}.c{fill:#fff;}.d{fill:#cdcdcd;}.e{fill:#e6e6e6;}.f{opacity:0.1;}.g{fill:#6c63ff;}</style></defs><g transform="translate(-9336.76 -185.851)"><g transform="translate(-23.366 64)"><g transform="translate(10006.281 140.975)"><path class="a" d="M46.821.076a34.1,34.1,0,0,0-13.1,2.756,47.532,47.532,0,0,0-10.3,6.02,58.026,58.026,0,0,0-6.742,6c-1.569,1.636-2.419,2.726-2.419,2.726L0,42.564l28.572.111,28.788.112s2.086-.365,5.212-1.077,7.3-1.773,11.47-3.162A51.507,51.507,0,0,0,85.49,33.4c3.11-2.035,5.158-4.38,5.083-7.013s-1.661-5.6-4.3-8.57A48.153,48.153,0,0,0,75.693,9.251,67.347,67.347,0,0,0,61.618,2.682,47.791,47.791,0,0,0,46.821.076Z"/><g transform="translate(16.615 7.961)"><path class="b" d="M29.537.019a21.469,21.469,0,0,0-8.251,1.728,29.948,29.948,0,0,0-6.5,3.788,36.579,36.579,0,0,0-4.255,3.782c-.991,1.031-1.527,1.718-1.527,1.718L0,26.8l18.041.051,18.127.051s1.311-.231,3.277-.681,4.587-1.119,7.2-2a32.317,32.317,0,0,0,7.183-3.239c1.95-1.279,3.233-2.753,3.187-4.407s-1.041-3.519-2.694-5.384a30.237,30.237,0,0,0-6.639-5.386,42.315,42.315,0,0,0-8.84-4.137A30.063,30.063,0,0,0,29.537.019Z"/></g></g><g transform="translate(9863.837 142.639)"><path class="a" d="M284,144.684c19.176,0,33.017,17.56,33.017,17.56l14.547,25.2H273.378s-33.592-5.971-33.294-16.466S264.827,144.684,284,144.684Z" transform="translate(-240.082 -144.684)"/><g transform="translate(16.945 7.92)"><path class="b" d="M267.732,144.684c12.072,0,20.786,11.055,20.786,11.055l9.158,15.862H261.043s-21.148-3.759-20.96-10.366S255.66,144.684,267.732,144.684Z" transform="translate(-240.082 -144.684)"/></g></g><g transform="translate(-13 -27)"><g transform="translate(10013.486 221.306)"><path class="c" d="M628.922,267.454c-16.961-1.732-14.306,16.2-12.9,16.65,10.953,3.594-2.018,79.719-53.8,103.7-22.994,10.836-51.661,16.658-81.131,16.476,33.621,5.569,73.105,1.515,105.946-12.767.74-.321,1.84-.815,2.932-1.32,41.726-26.671,38.741-38.079,49.936-63.527C641.4,316.133,645.882,269.186,628.922,267.454Z" transform="translate(-481.097 -260.222)"/><path class="b" d="M10102.022,387.6h20.1V358.894l-6.315-7.464-5.742,7.464-8.039-7.464-2.3,10.335h-5.741l5.741,25.839Z" transform="translate(-9961.644 -351.429)"/></g><rect class="b" width="40" height="25" rx="5" transform="translate(9911.693 441.132)"/><rect class="b" width="40" height="25" rx="5" transform="translate(10017.902 441.132)"/><g transform="translate(-136 14.111)"><rect class="c" width="277.716" height="202" rx="10" transform="translate(9984.485 226.886)"/><g transform="translate(208.277 -48.941)"><path class="b" d="M9395.154,43.876c49.184,6.978,28.526,23.261,50.5,24.812s28.609-21.541,28.609-21.541c-17.48-23.175-1.128-34.585-14.347-47.421S9421.386-4.2,9421.386-4.2C9394,14.751,9395.154,43.876,9395.154,43.876Z" transform="matrix(1, 0.017, -0.017, 1, 540.94, 156.016)"/><path class="b" d="M9375.874,47.457c2.09,18.24,47.807,19.68,69.775,21.23s2.979-39.558,2.979-39.558c-17.48-23.175,24.5-16.567,11.284-29.4S9421.386-4.2,9421.386-4.2C9394,14.751,9375.874,47.457,9375.874,47.457Z" transform="matrix(0.485, 0.875, -0.875, 0.485, 5285.091, -7946.235)"/><path class="b" d="M9395.154,73.778c13.241,49.676,33.527,56.814,50.5,39.335s30.168-41.523,30.168-41.523c32.477-27.754-2.687-47.454-15.905-67.8s-38.526-6.22-38.526-6.22C9394,27.606,9395.154,73.778,9395.154,73.778Z" transform="translate(15353.777 8080.367) rotate(-126)"/><path class="b" d="M9395.154,43.876c17.165,2.435,10.766,16.2,15.911,20.041,8.988,6.7,20.282,3.761,34.584,4.77,21.969,1.551,2.979-39.558,2.979-39.558-17.48-23.175,24.5-16.567,11.284-29.4S9421.386-4.2,9421.386-4.2C9394,14.751,9395.154,43.876,9395.154,43.876Z" transform="matrix(0.485, 0.875, -0.875, 0.485, 5460.091, -7825.669)"/></g></g></g><g transform="translate(-2.778 -19.194)"><path class="d" d="M77.913,0c44.506,0,62.961,17.668,62.961,52.966,0,28.344-20.18,78.435-51.83,83.939H61.981C34,134.612,9.232,88.264,9.232,52.966S33.407,0,77.913,0Z" transform="translate(9905.548 148.392)"/><path class="c" d="M77.913,0c44.506,0,62.961,17.668,62.961,52.966,0,28.344-20.18,78.435-51.83,83.939H61.981C34,134.612,9.232,88.264,9.232,52.966S33.407,0,77.913,0Z" transform="translate(9905.548 141.045)"/></g><g transform="translate(9.819 4.819)"><circle class="b" cx="13.965" cy="13.965" r="13.965" transform="translate(9918.742 144.4)"/><path class="c" d="M7.134,0A7.134,7.134,0,1,1,0,7.134,7.134,7.134,0,0,1,7.134,0Z" transform="translate(9925.166 151.232)"/></g><g transform="translate(81.411 4.819)"><circle class="b" cx="13.965" cy="13.965" r="13.965" transform="translate(9918.742 144.4)"/><path class="c" d="M7.039,0A7.039,7.039,0,1,1,0,7.039,7.039,7.039,0,0,1,7.039,0Z" transform="translate(9925.261 151.326)"/></g><rect class="a" width="62.604" height="33.389" rx="10" transform="translate(9947.366 209)"/><g transform="translate(0.721)"><path class="b" d="M4.174,0A4.174,4.174,0,1,1,0,4.174,4.174,4.174,0,0,1,4.174,0Z" transform="translate(9986.645 222)"/><path class="b" d="M4.174,0A4.174,4.174,0,1,1,0,4.174,4.174,4.174,0,0,1,4.174,0Z" transform="translate(9960.645 222)"/></g></g><g transform="translate(9293 101)"><path class="e" d="M256.373,505.528c.894,2.083,1.84,4.189,2.811,6.258l-2.081.977c-.982-2.093-1.938-4.221-2.843-6.328Z" transform="translate(-210.5 -115.5)"/><path class="e" d="M518.566,613.259l.868,2.129c-2.15.876-4.325,1.72-6.466,2.51l-.8-2.157C514.289,614.961,516.44,614.126,518.566,613.259Z" transform="translate(-210.5 -115.5)"/><path class="a" d="M626.646,517.021c-.229-.375-5.641-9.41-7.517-28.172-1.721-17.213-.614-46.227,14.433-86.7,28.506-76.671-6.569-138.533-6.928-139.149l1.73-1c.091.156,9.142,15.929,14.488,41.044a179.061,179.061,0,0,1-7.416,99.807c-28.457,76.54-7.3,112.773-7.084,113.131Z" transform="translate(-210.5 -115.5)"/><circle class="b" cx="13" cy="13" r="13" transform="translate(392 117)"/><circle class="a" cx="13" cy="13" r="13" transform="translate(433 165)"/><circle class="b" cx="13" cy="13" r="13" transform="translate(405 197)"/><circle class="b" cx="13" cy="13" r="13" transform="translate(439 224)"/><circle class="a" cx="13" cy="13" r="13" transform="translate(395 266)"/><path class="a" d="M634.5,517.5s-13-32,26-56Z" transform="translate(-210.5 -115.5)"/><path class="a" d="M618.512,516.92S612.6,482.891,566.8,483.182Z" transform="translate(-210.5 -115.5)"/><path class="b" d="M572.671,267.461c-10.507-1.825-8.862,17.07-7.989,17.547,6.785,3.788-1.25,84.015-33.327,109.286A79.022,79.022,0,0,1,481.1,411.658c20.828,5.869,45.287,1.6,65.632-13.455.458-.339,1.14-.859,1.816-1.391,25.849-28.108,24-40.131,30.935-66.95C580.4,318.763,583.178,269.286,572.671,267.461Z" transform="translate(-210.5 -115.5)"/><path class="a" d="M238.906,138l13.234,22.922,13.234,22.922H212.438l13.234-22.922Z"/><path class="a" d="M287.176,138l13.235,22.922,13.234,22.922H260.708l13.234-22.922Z"/><path class="b" d="M237.376,149.956l8.165,14.143,8.165,14.142H221.045L229.21,164.1Z"/><path class="b" d="M286.983,149.956l8.165,14.143,8.165,14.142h-32.66l8.165-14.142Z"/><path class="b" d="M566.634,416.572a93.1,93.1,0,1,1-33.289-71.341A93.1,93.1,0,0,1,566.634,416.572Z" transform="translate(-210.5 -115.5)"/><path class="f" d="M533.345,345.231c-7.788,20.338-31.617,35.138-59.8,35.138s-52.016-14.8-59.8-35.138a93.086,93.086,0,0,1,119.607,0Z" transform="translate(-210.5 -115.5)"/><ellipse class="b" cx="62.493" cy="49.563" rx="62.493" ry="49.563" transform="translate(200.548 158.416)"/><circle class="c" cx="11.637" cy="11.637" r="11.637" transform="translate(222.097 189.446)"/><circle class="c" cx="11.637" cy="11.637" r="11.637" transform="translate(280.711 189.446)"/><path class="b" d="M7.327,0A7.327,7.327,0,1,1,0,7.327,7.327,7.327,0,0,1,7.327,0Z" transform="translate(226.407 193.756)"/><circle class="b" cx="7.327" cy="7.327" r="7.327" transform="translate(285.021 193.756)"/><circle class="g" cx="2.155" cy="2.155" r="2.155" transform="translate(247.817 215.302)"/><path class="a" d="M459.644,332.41c-4.227,1.919-7.026,5.826-11.468,7.506a21.02,21.02,0,0,1-14.085.262c-.792-.262-1.131.986-.344,1.247a22.211,22.211,0,0,0,14.143-.035,21.4,21.4,0,0,0,6.029-3.2c2.117-1.607,3.921-3.545,6.377-4.66.757-.343.1-1.458-.653-1.116Z" transform="translate(-210.5 -115.5)"/><path class="a" d="M461.328,331.861a24.59,24.59,0,0,0-6.193,2.341,21.236,21.236,0,0,1-7.141,2.009,20.981,20.981,0,0,1-13.355-3.38c-.7-.456-1.347.663-.653,1.116a22.171,22.171,0,0,0,13.341,3.6A21.207,21.207,0,0,0,454,336.1c2.57-1.025,4.9-2.521,7.668-3C462.49,332.967,462.143,331.721,461.328,331.861Z" transform="translate(-210.5 -115.5)"/><path class="a" d="M460.173,331.023c-3.291,3.106-4.659,7.592-8.149,10.6a20.961,20.961,0,0,1-13.5,5.071.647.647,0,0,0,0,1.293,22.2,22.2,0,0,0,13.276-4.529,21.343,21.343,0,0,0,4.5-4.639c1.627-2.3,2.7-4.916,4.787-6.881.606-.572-.309-1.485-.914-.914Z" transform="translate(-210.5 -115.5)"/><circle class="g" cx="2.155" cy="2.155" r="2.155" transform="translate(270.508 215.302)"/><path class="a" d="M483.338,333.527c2.429,1.1,4.225,3.009,6.312,4.609a21.476,21.476,0,0,0,6.094,3.254,22.163,22.163,0,0,0,14.143.035c.786-.26.449-1.509-.344-1.247a21.014,21.014,0,0,1-14.085-.262c-4.442-1.682-7.239-5.586-11.468-7.506-.752-.341-1.41.773-.653,1.116Z" transform="translate(-210.5 -115.5)"/><path class="a" d="M481.963,333.108c2.656.457,4.9,1.858,7.357,2.872a21.4,21.4,0,0,0,6.988,1.572,22.17,22.17,0,0,0,13.341-3.6c.694-.453.047-1.573-.653-1.116a20.91,20.91,0,0,1-13.356,3.38A21.541,21.541,0,0,1,488.5,334.2a24.726,24.726,0,0,0-6.193-2.341c-.814-.14-1.163,1.106-.344,1.247Z" transform="translate(-210.5 -115.5)"/><path class="a" d="M482.547,331.937c2.079,1.963,3.158,4.581,4.787,6.881a21.418,21.418,0,0,0,4.5,4.639,22.2,22.2,0,0,0,13.275,4.528.647.647,0,0,0,0-1.293,20.9,20.9,0,0,1-13.5-5.071c-3.476-3.018-4.859-7.493-8.149-10.6-.6-.571-1.521.342-.914.914Z" transform="translate(-210.5 -115.5)"/><ellipse class="b" cx="17.239" cy="9.913" rx="17.239" ry="9.913" transform="translate(216.495 380.804)"/><ellipse class="b" cx="17.239" cy="9.913" rx="17.239" ry="9.913" transform="translate(275.109 380.804)"/><ellipse class="a" cx="14.222" cy="8.189" rx="14.222" ry="8.189" transform="translate(247.094 208.841)"/></g></g></svg>