<svg xmlns="http://www.w3.org/2000/svg" width="572.375" height="317.281" viewBox="0 0 572.375 317.281"><defs><style>.a{fill:#f27983;}.b{fill:#7b77f2;}.c{fill:#fff;}.d{fill:#cdcdcd;opacity:0.38;}.e{opacity:0.1;}</style></defs><g transform="translate(-4547.699 -6087.149)"><g transform="translate(4788.683 6087.149)"><g transform="translate(176.713 19.2)"><path class="a" d="M46.821.076a34.1,34.1,0,0,0-13.1,2.756,47.532,47.532,0,0,0-10.3,6.02,58.025,58.025,0,0,0-6.742,6c-1.569,1.636-2.419,2.726-2.419,2.726L0,42.564l28.572.111,28.788.112s2.086-.365,5.212-1.077,7.3-1.773,11.47-3.162A51.507,51.507,0,0,0,85.49,33.4c3.11-2.035,5.158-4.38,5.083-7.013s-1.661-5.6-4.3-8.57a48.153,48.153,0,0,0-10.58-8.566A67.347,67.347,0,0,0,61.618,2.682,47.791,47.791,0,0,0,46.821.076Z" transform="translate(0 -0.076)"/><g transform="translate(16.615 7.904)"><path class="b" d="M29.537.019a21.469,21.469,0,0,0-8.251,1.728,29.948,29.948,0,0,0-6.5,3.788,36.579,36.579,0,0,0-4.255,3.782C9.54,10.348,9,11.035,9,11.035L0,26.8l18.041.051,18.127.051s1.311-.231,3.277-.681,4.587-1.119,7.2-2a32.317,32.317,0,0,0,7.183-3.239c1.95-1.279,3.233-2.753,3.187-4.407s-1.041-3.519-2.694-5.384a30.237,30.237,0,0,0-6.639-5.386,42.315,42.315,0,0,0-8.84-4.137A30.063,30.063,0,0,0,29.537.019Z" transform="translate(0 -0.019)"/></g></g><g transform="translate(34.269 20.788)"><path class="a" d="M284,144.684c19.176,0,33.017,17.56,33.017,17.56l14.547,25.2H273.378s-33.592-5.971-33.294-16.466S264.827,144.684,284,144.684Z" transform="translate(-240.082 -144.684)"/><g transform="translate(16.945 7.92)"><path class="b" d="M267.732,144.684c12.072,0,20.786,11.055,20.786,11.055l9.158,15.862H261.043s-21.148-3.759-20.96-10.366S255.66,144.684,267.732,144.684Z" transform="translate(-240.082 -144.684)"/></g></g><g transform="translate(0 70.475)"><path class="b" d="M5,0H35a5,5,0,0,1,5,5V20a5,5,0,0,1-5,5L19.554,20,5,25a5,5,0,0,1-5-5V5A5,5,0,0,1,5,0Z" transform="translate(175.334 221.806)"/><g transform="translate(170.912 1.981)"><path class="c" d="M628.922,267.454c-16.961-1.732-14.306,16.2-12.9,16.65,10.953,3.594-2.018,79.719-53.8,103.7-22.994,10.836-51.661,16.658-81.131,16.476,33.621,5.569,73.1,1.515,105.946-12.767.74-.321,1.84-.815,2.932-1.32,41.726-26.671,38.741-38.079,49.936-63.527C641.4,316.133,645.882,269.186,628.922,267.454Z" transform="translate(-481.091 -260.223)"/><path class="b" d="M10102,387.6h20.1V358.894l-6.315-7.464-5.742,7.464L10102,351.43l-2.3,10.335h-5.741l5.741,25.839Z" transform="translate(-9961.638 -351.43)"/></g><path class="b" d="M5,0H35a5,5,0,0,1,5,5V20a5,5,0,0,1-5,5L19.554,20,5,25a5,5,0,0,1-5-5V5A5,5,0,0,1,5,0Z" transform="translate(69.125 221.806)"/><g transform="translate(0 0)"><path class="c" d="M-4517.009-5921.952h-227.715a24.858,24.858,0,0,1-9.732-1.964,24.912,24.912,0,0,1-7.946-5.358,24.9,24.9,0,0,1-5.358-7.946,24.841,24.841,0,0,1-1.965-9.731v-146.737c3.739,10.245,8.636,20.606,12.57,28.931.837,1.771,1.627,3.444,2.351,5,1.844,3.96,4.522,5.969,7.961,5.97,2.645,0,5.768-1.186,9.281-3.523a60.018,60.018,0,0,0,9.114-7.751,114.548,114.548,0,0,0,9.7-11.275c2.813-6.327,6-9.4,9.748-9.4,3.35,0,6.611,2.41,9.665,4.879.3.241.594.483.886.721l.048.039c2.594,2.119,5.044,4.12,7.014,4.12a2.744,2.744,0,0,0,2.163-1.07,9.461,9.461,0,0,0,1.676-3.671c2.49-9.188-1.788-18.381-5.815-24.475a62.668,62.668,0,0,0-9.429-11.134,123.206,123.206,0,0,0-19.825-7.617h205.608a24.861,24.861,0,0,1,9.732,1.964,24.928,24.928,0,0,1,7.947,5.358,24.914,24.914,0,0,1,5.357,7.946,24.844,24.844,0,0,1,1.965,9.731v152a24.841,24.841,0,0,1-1.965,9.731,24.911,24.911,0,0,1-5.357,7.946,24.92,24.92,0,0,1-7.947,5.358A24.858,24.858,0,0,1-4517.009-5921.952Z" transform="translate(4775.641 6145.624)"/><g transform="translate(0 0)"><path class="b" d="M.007,51.087C49.19,58.065,28.533,74.348,50.507,75.9S79.116,54.358,79.116,54.358C61.636,31.183,77.988,19.773,64.77,6.937S26.246,3.011,26.246,3.011C-1.144,21.962.007,51.087.007,51.087Z" transform="translate(165.915 54.367) rotate(0.974)"/><path class="b" d="M.007,80.982c13.241,49.676,33.527,56.814,50.5,39.335S80.675,78.794,80.675,78.794c32.477-27.754-2.687-47.454-15.905-67.8s-38.526-6.22-38.526-6.22C-1.144,34.81.007,80.982.007,80.982Z" transform="translate(55.287 229.587) rotate(-126)"/><path class="b" d="M.007,51.084c17.165,2.435,10.766,16.2,15.911,20.041,8.988,6.7,20.282,3.761,34.584,4.77,21.969,1.551,2.979-39.558,2.979-39.558C36,13.162,77.98,19.77,64.765,6.937S26.246,3.008,26.246,3.008C-1.144,21.959.007,51.084.007,51.084Z" transform="translate(252.751 137.43) rotate(61.001)"/></g></g></g><g transform="translate(82.434)"><path class="d" d="M77.913,0c44.506,0,62.961,17.668,62.961,52.966,0,28.344-20.18,78.435-51.83,83.939H61.981C34,134.612,9.232,88.264,9.232,52.966S33.407,0,77.913,0Z" transform="translate(-9.232 7.347)"/><path class="c" d="M77.913,0c44.506,0,62.961,17.668,62.961,52.966,0,28.344-20.18,78.435-51.83,83.939H61.981C34,134.612,9.232,88.264,9.232,52.966S33.407,0,77.913,0Z" transform="translate(-9.232)"/></g><g transform="translate(98.993 27.368)"><circle class="b" cx="13.965" cy="13.965" r="13.965"/><path class="c" d="M7.134,0A7.134,7.134,0,1,1,0,7.134,7.134,7.134,0,0,1,7.134,0Z" transform="translate(6.424 6.832)"/></g><g transform="translate(170.585 27.368)"><circle class="b" cx="13.965" cy="13.965" r="13.965"/><path class="c" d="M7.039,0A7.039,7.039,0,1,1,0,7.039,7.039,7.039,0,0,1,7.039,0Z" transform="translate(6.519 6.926)"/></g><rect class="a" width="62.604" height="33.389" rx="10" transform="translate(117.798 87.149)"/><g transform="translate(131.797 100.149)"><path class="b" d="M4.174,0A4.174,4.174,0,1,1,0,4.174,4.174,4.174,0,0,1,4.174,0Z" transform="translate(26)"/><path class="b" d="M4.174,0A4.174,4.174,0,1,1,0,4.174,4.174,4.174,0,0,1,4.174,0Z"/></g></g><path class="a" d="M624.906,462.4c-.18-.295-4.433-7.395-5.907-22.138-1.352-13.526-.482-36.326,11.342-68.13,22.4-60.249-5.162-108.861-5.444-109.345l1.359-.786c.072.123,7.184,12.517,11.385,32.253a140.708,140.708,0,0,1-5.828,78.43c-22.362,60.146-5.736,88.619-5.567,88.9Z" transform="translate(4116.275 5923.753)"/><ellipse class="b" cx="10.216" cy="10.216" rx="10.216" ry="10.216" transform="translate(4722.207 6162.571)"/><ellipse class="a" cx="10.216" cy="10.216" rx="10.216" ry="10.216" transform="translate(4754.425 6200.291)"/><ellipse class="b" cx="10.216" cy="10.216" rx="10.216" ry="10.216" transform="translate(4732.422 6225.437)"/><ellipse class="b" cx="10.216" cy="10.216" rx="10.216" ry="10.216" transform="translate(4759.14 6246.653)"/><ellipse class="a" cx="10.216" cy="10.216" rx="10.216" ry="10.216" transform="translate(4724.564 6279.658)"/><path class="a" d="M634.054,505.506S623.839,480.36,654.486,461.5Z" transform="translate(4113.298 5881.023)"/><path class="a" d="M607.436,509.693s-4.646-26.74-40.636-26.512Z" transform="translate(4127.353 5876.379)"/><path class="b" d="M553.058,267.434c-8.257-1.434-6.964,13.414-6.278,13.789,5.332,2.977-.982,66.02-26.189,85.879A62.1,62.1,0,0,1,481.1,380.746c16.367,4.612,35.587,1.257,51.575-10.573.36-.266.9-.675,1.427-1.093,20.313-22.088,18.86-31.536,24.309-52.61C559.131,307.748,561.314,268.869,553.058,267.434Z" transform="translate(4145.709 5922.61)"/><path class="a" d="M233.237,138l10.4,18.012,10.4,18.012h-41.6l10.4-18.012Z" transform="translate(4368.666 6041.073)"/><path class="a" d="M281.507,138l10.4,18.012,10.4,18.012h-41.6l10.4-18.012Z" transform="translate(4358.327 6041.073)"/><path class="b" d="M233.878,149.956l6.416,11.114,6.416,11.113H221.045l6.416-11.112Z" transform="translate(4366.823 6038.513)"/><path class="b" d="M283.485,149.956,289.9,161.07l6.416,11.113H270.653l6.416-11.113Z" transform="translate(4356.197 6038.513)"/><path class="b" d="M526.751,396.632a73.159,73.159,0,1,1-26.159-56.061,73.16,73.16,0,0,1,26.159,56.061Z" transform="translate(4167.271 5910.585)"/><path class="e" d="M507.728,340.572c-6.12,15.982-24.845,27.612-46.992,27.612s-40.875-11.63-46.992-27.612a73.148,73.148,0,0,1,93.989,0Z" transform="translate(4160.135 5910.585)"/><ellipse class="b" cx="49.108" cy="38.947" rx="49.108" ry="38.947" transform="translate(4571.761 6195.117)"/><ellipse class="c" cx="9.145" cy="9.145" rx="9.145" ry="9.145" transform="translate(4588.694 6219.5)"/><ellipse class="c" cx="9.145" cy="9.145" rx="9.145" ry="9.145" transform="translate(4634.754 6219.5)"/><path class="b" d="M5.758,0A5.758,5.758,0,1,1,0,5.758,5.758,5.758,0,0,1,5.758,0Z" transform="translate(4592.081 6222.887)"/><ellipse class="b" cx="5.758" cy="5.758" rx="5.758" ry="5.758" transform="translate(4638.141 6222.887)"/><path class="a" d="M454,332.4c-3.322,1.508-5.521,4.578-9.012,5.9a16.518,16.518,0,0,1-11.068.206c-.622-.206-.889.775-.27.98a17.454,17.454,0,0,0,11.114-.027,16.818,16.818,0,0,0,4.738-2.515c1.664-1.263,3.081-2.786,5.011-3.662.595-.27.079-1.146-.513-.877Z" transform="translate(4155.947 5908.685)"/><path class="a" d="M455.408,331.859a19.323,19.323,0,0,0-4.867,1.84,16.688,16.688,0,0,1-5.612,1.579,16.487,16.487,0,0,1-10.495-2.656c-.55-.358-1.059.521-.513.877a17.422,17.422,0,0,0,10.484,2.829,16.665,16.665,0,0,0,5.244-1.137c2.02-.805,3.85-1.981,6.026-2.357C456.321,332.728,456.049,331.749,455.408,331.859Z" transform="translate(4155.863 5908.792)"/><path class="a" d="M455.4,330.984c-2.586,2.441-3.661,5.966-6.4,8.33a16.471,16.471,0,0,1-10.608,3.985.508.508,0,0,0,0,1.016,17.445,17.445,0,0,0,10.432-3.559,16.771,16.771,0,0,0,3.536-3.645c1.279-1.807,2.122-3.863,3.762-5.407.476-.449-.243-1.167-.718-.718Z" transform="translate(4154.961 5909.008)"/><path class="a" d="M483.266,333.274c1.909.864,3.32,2.365,4.96,3.622a16.877,16.877,0,0,0,4.789,2.557,17.416,17.416,0,0,0,11.114.028c.618-.2.353-1.186-.27-.98a16.513,16.513,0,0,1-11.068-.206c-3.491-1.322-5.689-4.39-9.012-5.9-.591-.268-1.108.607-.513.877Z" transform="translate(4145.301 5908.686)"/><path class="a" d="M481.863,332.838c2.087.359,3.851,1.46,5.781,2.257a16.817,16.817,0,0,0,5.491,1.235,17.422,17.422,0,0,0,10.484-2.829c.545-.356.037-1.236-.513-.877a16.431,16.431,0,0,1-10.5,2.656A16.927,16.927,0,0,1,487,333.7a19.429,19.429,0,0,0-4.867-1.84c-.64-.11-.914.869-.27.98Z" transform="translate(4145.624 5908.792)"/><path class="a" d="M482.5,331.7c1.634,1.543,2.482,3.6,3.762,5.407a16.831,16.831,0,0,0,3.536,3.645,17.445,17.445,0,0,0,10.432,3.558.508.508,0,0,0,0-1.016,16.424,16.424,0,0,1-10.608-3.985c-2.732-2.372-3.818-5.888-6.4-8.33-.471-.449-1.2.269-.718.718Z" transform="translate(4145.441 5909.008)"/><ellipse class="b" cx="13.547" cy="7.79" rx="13.547" ry="7.79" transform="translate(4584.292 6369.873)"/><ellipse class="b" cx="13.547" cy="7.79" rx="13.547" ry="7.79" transform="translate(4630.352 6369.873)"/><ellipse class="a" cx="11.176" cy="6.435" rx="11.176" ry="6.435" transform="translate(4608.337 6234.741)"/></g></svg>