<svg xmlns="http://www.w3.org/2000/svg" width="693" height="553.877" viewBox="0 0 693 553.877"><defs><style>.a{fill:#e6e6e6;}.b{fill:#0d0d0d;}.c{fill:#ffb6b6;}.d{fill:#2f2e41;}.e{fill:#6c63ff;}.f{fill:#f27983;}.g{fill:#3f3d56;}.h{fill:#fff;}</style></defs><g transform="translate(-8262 -3605)"><g transform="translate(8262 3605)"><rect class="a" width="14.23" height="10.62" transform="translate(46 282.38)"/><path class="a" d="M68.18,293H53.11l-.66-2-2.56-7.73-.07-.21,1.94-.68,11.49-4.03,1.65,4.92L67.5,291Z"/><path class="a" d="M622.18,283.06l-.07.21L619.55,291l-.66,2H603.82l.68-2,2.6-7.73,1.65-4.92,11.49,4.03Z"/><rect class="a" width="14.23" height="10.62" transform="translate(611.77 282.38)"/><path class="b" d="M670.31,0H22.69A22.717,22.717,0,0,0,0,22.69V270.31A22.717,22.717,0,0,0,22.69,293H670.31A22.717,22.717,0,0,0,693,270.31V22.69A22.717,22.717,0,0,0,670.31,0ZM691,270.31A20.687,20.687,0,0,1,670.306,291H22.69A20.687,20.687,0,0,1,2,270.306V22.69A20.687,20.687,0,0,1,22.694,2H535.32A155.68,155.68,0,0,1,691,157.68Z"/><path class="c" d="M507.178,536.66l-7.585-.064-3.358-29.94,11.2.094Z"/><path class="d" d="M482.881,548.722a3.4,3.4,0,0,0,3.362,3.421l15.082.126,2.64-5.352.97,5.379,5.691.052-1.437-19.185-1.98-.132-8.076-.557-2.605-.174-.046,5.428-12.115,8.217a3.39,3.39,0,0,0-1.486,2.777Z"/><path class="c" d="M590.147,536.66l-7.585-.064-3.358-29.94,11.2.094Z"/><path class="d" d="M565.85,548.722a3.4,3.4,0,0,0,3.362,3.421l15.082.126,2.64-5.352.97,5.379,5.691.052-1.437-19.185-1.98-.132-8.076-.557-2.6-.174-.046,5.428-12.115,8.217a3.39,3.39,0,0,0-1.486,2.777Z"/><path class="c" d="M465.068,105.229a7.154,7.154,0,0,1-.621,10.878L473.1,150.7l-8.98,4.745-9.974-41.161a7.144,7.144,0,0,1,10.924-9.054Z"/><path class="b" d="M509.539,300.493h63.272s19.316,28.319,14.91,54.751l-9.178,78.2L598,524.853l-18.723,1.836L546.971,433.44l-4.406-56.54-8.077,60.942-24.95,86.088-18,.185,10.646-87.007,4.415-81.984s2.7-5.677.426-7.92.335-6.226.335-6.226,3.48-5.508.436-8.1,1.744-32.384,1.744-32.384Z"/><path class="e" d="M595,323.672s-57.271-15.419-55.068,2.2c.975,7.8-30.97,2.871-40.831,1.711l9.626-41.727-15.962,40.868c-2.908-.455-4.714-.808-4.714-.808l21.043-51.441s2.2-49.928-2.313-62.168,6.718-17.13,6.718-17.13c11.1-8.233,16.394-16.365,11.682-24.325l24.3,2.093,2.2,11.953,20.661,10.059L562.274,254.5s-1.31,1.446-.445,2.631,1.015,2.13-.529,3.126-.824,4.873-.824,4.873.073,2.4,1.513,2.564.949,1.609.949,1.609-.094,2.91,1.3,2.2c.936-.475,21.719,39.483,23.3,38.845s1.038,4.075,2.413,4.288,1.384,2.467,1.977,3.527c1.892,3.381,3.068,5.5,3.068,5.5Z"/><path class="e" d="M530.1,215.429l2.5-23.3-32.578-7.869L467.3,123.96l-10.279,4.4v10.279s-8.811,8.811,20.9,50.727l8.464,11.683,46.2,21.7-2.5-7.323Z"/><path class="c" d="M502.115,76.792a7.154,7.154,0,0,0,6.383,8.83l11.348,33.8,10.122-.84L516.2,78.535a7.144,7.144,0,0,0-14.081-1.743Z"/><path class="e" d="M571.68,203.339h0a15.32,15.32,0,0,0,2.081-24l-34.937-32.734s1.318-51.279-12.26-51.4l-2.935-9.171-15.793,7.537,1.919,7.58s1.033,31.368,10.311,40.722c.168,13.214,5.706,16.716,5.706,16.716l45.908,44.75Z"/><circle class="c" cx="20.816" cy="20.816" r="20.816" transform="translate(519.48 128.304)"/><path class="d" d="M590.876,205.448a8.416,8.416,0,0,1-4.23,7.23,12.975,12.975,0,0,1-2.63.97c-.03-.3-.08-.59-.13-.88a31.093,31.093,0,0,0-5.9-13.57c-1.43-1.88,2.53,8.78,3.53,14.78-.91-1.82-5.54-13.5-5.84-13.94a1.618,1.618,0,0,0,.06.21,41.916,41.916,0,0,1,2.07,14.11c-5.8,8.27-10.85,10.5-15.5,9.57a14.6,14.6,0,0,0-.64-11.74,15.734,15.734,0,0,1-4.97,9.19,48.612,48.612,0,0,1-6.47-5.71,30.958,30.958,0,0,0,3.02-35.3,41.961,41.961,0,0,1-12.55,35.4c-2.22-.34-4.22-1.22-5.11-3.2a6.425,6.425,0,0,1,.78-5.8c1.03-1.74-2.58-10.15-1.37-11.77,5.06-6.74,9.87-9.98,4.45-16.43-2.49-2.97-5.96-5.25-7.45-8.83-1.88-4.51-.07-9.66,2.11-14.02s9.48-2.33,4.6-2.73c-8.39-.68-4.73-7.49-6.57-10.33-1.03-1.59-3.57-1.33-5.47-1.35a30.1,30.1,0,0,0-2.79-6.47,39.242,39.242,0,0,1,.33,6.68c-1.52.26-3.99,2.81-5.3,3.63l-.48.23c-1.85-1.06-1.575-3.042-1.585-5.182s-4.14-4.19-3-6c3.03-4.79,2.055-7.488,7.676-8.218s10.85-2.86,15,1c4-8,19.57-.94,23.33.57a14.255,14.255,0,0,1,8.07,8.58c2.98,8.9,1.47,13,6.6,20.85,4.39,6.72,10.6,3.55,13.51,11.03,1.83,4.72-.35,9.94-2.29,14.61s-5.95,15.33-.95,14.57c4.26-.66,6.33,3.58,6.09,8.26Z"/><path class="f" d="M610.524,536.544a2.269,2.269,0,0,0,1.645-3.933l-.156-.618.062-.148a6.094,6.094,0,0,1,11.241.042c1.839,4.428,4.179,8.864,4.756,13.546a18.029,18.029,0,0,1-.316,6.2,72.281,72.281,0,0,0,6.575-30.021,69.779,69.779,0,0,0-.433-7.783q-.359-3.178-.995-6.31a73.12,73.12,0,0,0-14.5-30.99,19.459,19.459,0,0,1-8.093-8.4,14.845,14.845,0,0,1-1.35-4.056c.394.052,1.486-5.949,1.188-6.317.549-.833,1.532-1.247,2.131-2.06,2.982-4.043,7.091-3.337,9.236,2.157,4.582,2.313,4.627,6.148,1.815,9.837-1.789,2.347-2.035,5.522-3.6,8.035.161.207.329.407.491.614A73.587,73.587,0,0,1,627.9,488.51a30.592,30.592,0,0,1,1.826-14.21c1.748-4.217,5.025-7.769,7.91-11.415a6.279,6.279,0,0,1,11.184,3.083q.009.081.017.161-.643.363-1.259.77a3.078,3.078,0,0,0,1.241,5.6l.063.01a30.642,30.642,0,0,1-.807,4.579c3.7,14.316-4.29,19.53-15.7,19.764-.252.129-.5.258-.749.381a75.117,75.117,0,0,1,4.043,19.028,71.234,71.234,0,0,1-.052,11.5l.019-.136a18.826,18.826,0,0,1,6.427-10.87c4.946-4.063,11.933-5.559,17.268-8.824a3.533,3.533,0,0,1,5.411,3.437l-.022.143a20.684,20.684,0,0,0-2.319,1.117q-.643.363-1.259.77a3.078,3.078,0,0,0,1.241,5.6l.063.01.129.019a30.656,30.656,0,0,1-5.639,8.829c-2.315,12.5-12.256,13.683-22.89,10.044h-.006A75.1,75.1,0,0,1,629,552.633H610.98c-.065-.2-.123-.407-.181-.607a20.475,20.475,0,0,0,4.986-.3c-1.337-1.641-2.674-3.294-4.011-4.935a1.132,1.132,0,0,1-.084-.1c-.678-.84-1.363-1.673-2.041-2.512h0a29.993,29.993,0,0,1,.879-7.64h0Z"/><path class="e" d="M409.166,552.687a1.186,1.186,0,0,0,1.19,1.19h253.29a1.19,1.19,0,0,0,0-2.38H410.356a1.187,1.187,0,0,0-1.19,1.19Z"/></g><g transform="translate(8262 3605)"><rect class="g" width="69" height="82" transform="translate(434 30)"/><path class="h" d="M438,108h61V34H438Z"/></g><g transform="translate(-79)"><path class="g" d="M468.34,40A24.291,24.291,0,0,0,444,64.34V102h49V40Z" transform="translate(8341 3605)"/><path class="e" d="M-8262-3547v-13h49v13Zm0-18v-13h49v13Zm.109-18a24.3,24.3,0,0,1,5.309-13H-8213v13Z" transform="translate(17047 7250)"/></g><rect class="g" width="157" height="186" transform="translate(8297 3652)"/><path class="h" d="M438,202.289H576.725V34H438Z" transform="translate(7868.138 3626.855)"/><path class="e" d="M499.354,40A55.242,55.242,0,0,0,444,95.353V181H555.435V40Z" transform="translate(7875.782 3634.5)"/><path class="b" d="M3.905,140.448h0l-3.9,0V55.137A55.222,55.222,0,0,1,.634,46.7L9.448,56.8l9.147-10.711,9.274,10.213,9.394-10.213,9.4,10.213,8.654-10.213,9.52,10.213L74.1,46.093l9.148,10.213,9.4-10.213L101.8,56.306l9.026-10.213V37.748L101.8,48.335,92.648,37.748l-9.4,10.588L74.1,37.748,64.833,48.335l-9.52-10.588L46.66,48.335l-9.4-11.209L27.868,48.335,18.595,37.126,9.448,48.335,2.2,39.634A55.022,55.022,0,0,1,8.474,25.686L9.448,26.8l9.147-10.711,9.274,10.213,9.394-10.213,9.4,10.213,8.654-10.213,9.52,10.213L74.1,16.092l9.148,10.213,9.4-10.213L101.8,26.305l9.026-10.213V7.749L101.8,18.335,92.648,7.749l-9.4,10.586L74.1,7.749,64.833,18.335,55.313,7.749,46.66,18.335l-9.4-11.208L27.868,18.335,21.883,11.1A55.023,55.023,0,0,1,55.025,0H111V140.447h-4.023l3.848-4.354v-8.345L101.8,138.335l-9.149-10.588-9.4,10.588L74.1,127.748l-9.271,10.588-9.52-10.588L46.66,138.335l-9.4-11.21-9.394,11.21-9.274-11.21-9.147,11.21L.106,127.126v8.967l3.8,4.354ZM.106,97.125v8.967L9.448,116.8l9.147-10.711,9.274,10.213,9.394-10.213,9.4,10.213,8.654-10.213,9.52,10.213L74.1,106.092l9.148,10.213,9.4-10.213,9.149,10.213,9.026-10.213V97.749L101.8,108.335,92.648,97.749l-9.4,10.586L74.1,97.749l-9.271,10.586-9.52-10.586L46.66,108.335l-9.4-11.209-9.394,11.209L18.595,97.125,9.448,108.335Zm0-30v8.967L9.448,86.8l9.147-10.711L27.868,86.3l9.394-10.211L46.66,86.3l8.654-10.211L64.833,86.3,74.1,76.093,83.253,86.3l9.4-10.211L101.8,86.3l9.026-10.211V67.748L101.8,78.334,92.648,67.748l-9.4,10.586L74.1,67.748,64.833,78.334l-9.52-10.586L46.66,78.334l-9.4-11.208L27.868,78.334,18.595,67.127,9.448,78.334Zm96.442,73.32H88.642l4.005-4.354,3.9,4.353Zm-18.544,0H70.152l3.952-4.354,3.9,4.353Zm-18.633,0H51.624l3.689-4.354,4.057,4.353Zm-18.1,0H33.258l4.005-4.354,4,4.353Zm-18.72,0H14.877l3.718-4.354,3.952,4.353Z" transform="translate(8320.002 3674.615)"/><g transform="translate(201)"><rect class="g" width="157" height="186" transform="translate(8297 3652)"/><path class="b" d="M438,202.289H576.725V34H438Z" transform="translate(7868.138 3626.855)"/></g><path class="e" d="M499.354,40A55.242,55.242,0,0,0,444,95.353V181H555.435V40Z" transform="translate(8076.782 3634.5)"/><path class="h" d="M111.434,141H0V55.354A55.46,55.46,0,0,1,.413,48.5h110.8v-4H1.054c.2-1.009.43-2.018.682-3H111.218v-19H10.75A55.243,55.243,0,0,1,55.242,0h56.193V141ZM.219,132.5h0v4h111v-4Zm0-22v19h111v-19Zm0-22v4h111v-4Zm0-22v19h111v-19Z" transform="translate(8520.782 3674.5)"/></g></svg>